<svg width="550" height="340" viewBox="0 0 550 340" fill="none" xmlns="http://www.w3.org/2000/svg">
<g clip-path="url(#clip0_485_210)">
<path opacity="0.1" d="M550 217.568C550.01 226.746 548.901 235.891 546.699 244.8C545.958 247.799 545.097 250.738 544.116 253.618C542.915 257.169 541.525 260.653 539.951 264.055C539.157 265.772 538.318 267.459 537.434 269.114C537.448 278.525 535.513 287.838 531.751 296.462C524.948 311.935 512.821 324.446 497.579 331.718C488.036 336.275 477.607 338.67 467.035 338.731H104.409C88.2735 338.767 72.4165 334.524 58.4501 326.434C56.3861 325.237 54.375 323.962 52.4169 322.609C48.1653 319.668 44.1708 316.371 40.4766 312.753C35.4754 307.854 31.0694 302.382 27.3503 296.448C18.6124 282.556 13.9835 266.469 13.9997 250.051C5.15076 234.504 -0.00919724 215.88 -0.00919724 195.868C-0.00919724 170.619 8.1907 147.586 21.6626 130.15C24.4713 126.507 27.5478 123.08 30.8665 119.896C34.141 116.745 37.6606 113.861 41.3919 111.269C44.3761 109.192 47.4962 107.317 50.7312 105.658C52.0807 104.966 53.4349 104.321 54.8124 103.718C56.0219 103.18 57.2453 102.68 58.4828 102.208C59.9677 101.64 61.4713 101.121 62.9936 100.65C64.516 100.18 66.018 99.7652 67.4999 99.4067C69.679 98.8737 71.8955 98.4404 74.1494 98.1069C76.0173 97.831 77.8851 97.6393 79.753 97.4897C81.2379 97.3837 82.7353 97.3213 84.2452 97.3026H85.0624C86.7248 97.3026 88.3778 97.3681 90.0169 97.4803C90.1897 97.1343 90.3764 96.7836 90.5492 96.4376C91.203 95.1939 91.8801 93.9501 92.5618 92.7297V92.697C92.6786 92.4866 92.7953 92.2762 92.9167 92.0704C93.4677 91.0745 94.0421 90.0879 94.6305 89.1107C94.9013 88.6431 95.1675 88.2036 95.443 87.7594C95.5037 87.6518 95.5644 87.549 95.6345 87.4414C95.9146 86.9738 96.1995 86.5063 96.489 86.0387C97.9304 83.7351 99.4293 81.4674 100.986 79.2355C101.121 79.0437 101.247 78.8567 101.383 78.6697C101.626 78.3237 101.85 77.9823 102.121 77.641C102.765 76.7386 103.428 75.8315 104.096 74.9384C104.563 74.3072 105.03 73.676 105.534 73.0681C106.748 71.4971 107.995 69.9353 109.27 68.3923C110.545 66.8493 111.889 65.297 113.248 63.7774C113.435 63.567 113.622 63.3612 113.818 63.1508L115.812 60.9766C115.91 60.8737 115.994 60.7802 116.087 60.6867C116.326 60.4295 116.554 60.1723 116.811 59.9199C117.881 58.7883 118.978 57.6708 120.08 56.5673C125.709 50.9668 131.706 45.7495 138.03 40.9502C138.278 40.7539 138.53 40.5668 138.777 40.3798C139.963 39.4821 141.168 38.5983 142.373 37.7286C149.001 32.9701 155.928 28.6439 163.111 24.7768C163.606 24.4962 164.11 24.2297 164.619 23.9632C171.061 20.5532 177.684 17.5 184.46 14.8174C188.153 13.3554 191.91 11.9901 195.733 10.7214C198.264 9.89378 200.804 9.10358 203.377 8.38351C207.356 7.23951 211.384 6.20772 215.462 5.28815C227.477 2.58876 239.7 0.921249 251.997 0.303781C255.733 0.107398 259.511 0.00920848 263.331 0.00920848C281.762 -0.0152242 300.121 2.31018 317.966 6.92935C318.15 7.20853 318.402 7.43613 318.699 7.59073C318.996 7.74533 319.326 7.82184 319.661 7.81307H321.23C321.911 7.99542 322.588 8.18713 323.27 8.38351C327.078 9.48388 330.83 10.6824 334.529 11.9792L335.463 12.3158C344.591 15.5659 353.472 19.4725 362.038 24.0053C369.758 28.0831 377.192 32.6822 384.289 37.7707C385.381 38.5563 386.458 39.3496 387.52 40.1507C388.809 39.3184 390.119 38.5251 391.452 37.7707C396.597 34.8379 402.062 32.5065 407.739 30.8225C419.609 27.3055 432.167 26.8137 444.275 29.3917C459.801 32.6882 473.857 40.8708 485.209 52.5088C489.833 57.2551 493.952 62.4701 497.499 68.0697C497.756 68.4718 498.013 68.8786 498.261 69.2901C501.303 74.2629 503.919 79.4859 506.078 84.9025C506.157 85.0989 506.236 85.2906 506.306 85.487C508.3 90.556 509.908 95.7688 511.116 101.081C511.172 101.347 511.238 101.618 511.294 101.89C512.424 107.03 513.191 112.244 513.591 117.493C513.591 117.68 513.591 117.871 513.628 118.063C513.824 120.778 513.924 123.523 513.927 126.297C513.927 128.775 513.843 131.235 513.689 133.671C513.689 133.937 513.652 134.218 513.628 134.489C513.586 135.2 513.526 135.892 513.465 136.607C517.031 139.486 520.369 142.638 523.449 146.033C524.809 147.52 526.126 149.065 527.399 150.667C531.278 155.534 534.687 160.758 537.579 166.27C545.461 181.223 550 198.776 550 217.568Z" fill="#6246EA"/>
<path opacity="0.1" d="M497.233 309.601C497.233 320.229 486.231 330.175 467.034 338.741H104.409C87.6305 338.741 71.9172 332.662 58.4499 322.062C55.0644 318.041 53.2806 313.875 53.2806 309.597C53.2806 298.3 65.7206 287.756 87.229 278.844L87.836 278.601C93.9065 276.109 100.692 273.757 108.107 271.545C108.294 271.489 108.485 271.438 108.672 271.372C114.556 269.642 120.815 268.003 127.449 266.453C127.659 266.407 127.864 266.355 128.074 266.318C130.633 265.71 133.244 265.144 135.91 264.578L136.937 264.363C156.34 260.333 178.394 257.135 202.312 254.965H202.34C205.69 254.653 209.076 254.374 212.497 254.128C216.303 253.824 220.155 253.567 224.05 253.329C227.024 253.137 230.036 252.973 233.057 252.824C233.068 252.819 233.08 252.816 233.092 252.816C233.104 252.816 233.116 252.819 233.127 252.824C246.758 252.136 260.842 251.776 275.243 251.776C310.854 251.776 344.512 253.964 374.337 257.855C374.365 257.85 374.394 257.85 374.421 257.855C379.007 258.453 383.509 259.084 387.898 259.758C389.154 259.954 390.406 260.15 391.634 260.352C396.587 261.153 401.412 261.999 406.11 262.89C461.352 273.406 497.233 290.421 497.233 309.601Z" fill="#6246EA"/>
<path d="M406.959 113.752C406.959 113.752 402.019 111.746 386.301 118.961C370.583 126.176 368.622 125.264 364.554 124.179C360.487 123.094 358.218 122.814 353.856 116.787C353.856 116.787 350.779 100.09 347.786 97.4992C344.792 94.9088 332.156 98.9767 332.156 98.9767C332.156 98.9767 316.985 102.46 314.094 82.1439C314.094 82.1439 316.144 66.8448 313.352 62.1503C313.352 62.1503 318.993 64.5817 328.295 60.6541C337.597 56.7264 345.045 64.8857 345.045 64.8857C345.045 64.8857 347.379 70.9642 347.146 74.5926C346.913 78.221 348.388 79.5816 352.824 77.8282C352.824 77.8282 355.005 74.7235 351.918 69.5895C348.832 64.4555 346.628 60.6354 347.487 56.6516C348.346 52.6679 350.826 47.1364 358.787 44.3731C366.749 41.6097 377.559 41.1 382.747 38.9164C387.935 36.7329 389.215 35.3395 389.215 35.3395C389.215 35.3395 386.021 38.5424 393.544 52.1255C401.066 65.7086 396.271 71.6001 396.271 71.6001C396.271 71.6001 392.269 81.1527 374.599 80.3765C374.599 80.3765 357.573 80.9984 366.857 88.2271C366.857 88.2271 372.801 87.0161 381.687 84.1872C390.574 81.3584 396.99 93.0338 398.582 101.156C400.174 109.277 406.959 113.752 406.959 113.752Z" fill="#6246EA"/>
<path d="M384.074 45.6262L384.167 45.5981C384.849 48.1885 377.242 58.6061 370.737 66.8869L370.662 66.8261C379.834 55.1647 384.601 47.6321 384.074 45.6262Z" fill="#444053"/>
<path d="M370.793 66.6671L370.835 66.77C365.638 73.3815 359.105 81.2649 353.875 87.1236C353.375 87.68 352.88 88.2645 352.404 88.863L352.255 88.7414C352.722 88.1429 353.231 87.5538 353.73 86.9974C358.956 81.162 365.591 73.2833 370.793 66.6671Z" fill="#444053"/>
<path d="M352.381 88.5918L352.483 88.7695C342.967 100.669 342.336 119.162 342.313 119.307L340.305 116.969C340.328 116.819 342.799 100.576 352.381 88.5918Z" fill="#444053"/>
<path d="M395.944 107.3C395.944 107.3 384.737 101.455 375.976 103.559C367.216 105.663 347.515 96.1245 347.515 96.1245C347.515 96.1245 339.156 92.7252 337.475 88.849C337.475 88.849 331.736 82.7705 331.405 79.633C331.073 76.4956 325.493 68.5889 321.851 68.285" stroke="#444053" stroke-miterlimit="10"/>
<path d="M394.295 112.925C394.295 112.925 388.645 109.109 389.304 104.667" stroke="#444053" stroke-miterlimit="10"/>
<path d="M385.629 117.848C385.629 117.848 377.545 114.912 376.756 103.391" stroke="#444053" stroke-miterlimit="10"/>
<path d="M372.596 120.831C372.596 120.831 364.872 114.416 367.436 103.204" stroke="#444053" stroke-miterlimit="10"/>
<path d="M356.91 117.698C356.91 117.698 351.774 106.897 356.345 99.8698" stroke="#444053" stroke-miterlimit="10"/>
<path d="M396.051 100.178C396.051 100.178 390.209 102.049 391.461 105.116" stroke="#444053" stroke-miterlimit="10"/>
<path d="M389 89.5784C389 89.5784 381.178 92.0612 380.996 103.138" stroke="#444053" stroke-miterlimit="10"/>
<path d="M378.092 86.9974C378.092 86.9974 370.971 95.7972 371.494 103.793" stroke="#444053" stroke-miterlimit="10"/>
<path d="M365.624 90.4481C365.624 90.4481 358.554 97.2186 359.455 100.983" stroke="#444053" stroke-miterlimit="10"/>
<path d="M361.36 88.0588C361.36 88.0588 354.73 89.2464 353.8 87.0675" stroke="#444053" stroke-miterlimit="10"/>
<path d="M352.745 80.0445C352.745 80.0445 356.093 84.4865 356.948 83.4905" stroke="#444053" stroke-miterlimit="10"/>
<path d="M385.955 77.2344C385.955 77.2344 369.238 78.4501 365.456 73.4002" stroke="#444053" stroke-miterlimit="10"/>
<path d="M349.247 57.6569C349.247 57.6569 357.088 74.5131 362.789 76.6593" stroke="#444053" stroke-miterlimit="10"/>
<path d="M357.457 49.6286C357.457 49.6286 362.271 65.1335 368.239 69.9729" stroke="#444053" stroke-miterlimit="10"/>
<path d="M392.988 64.4368C392.988 64.4368 380.277 69.8981 372.647 64.3713" stroke="#444053" stroke-width="0.75" stroke-miterlimit="10"/>
<path d="M368.776 46.3229C368.776 46.3229 371.68 57.7177 375.593 60.4717" stroke="#444053" stroke-width="0.75" stroke-miterlimit="10"/>
<path d="M391.069 51.6673C391.069 51.6673 383.924 54.3792 381.262 52.3032" stroke="#444053" stroke-width="0.75" stroke-miterlimit="10"/>
<path d="M346.623 83.7664C346.623 83.7664 346.623 93.7024 343.924 94.4085" stroke="#444053" stroke-miterlimit="10"/>
<path d="M324.54 96.6388C324.54 96.6388 335.28 97.574 340.216 92.0145" stroke="#444053" stroke-miterlimit="10"/>
<path d="M343.859 72.0302C343.859 72.0302 341.262 82.1065 334.099 84.8231" stroke="#444053" stroke-miterlimit="10"/>
<path d="M318.105 86.0248C318.105 86.0248 325.698 88.6666 332.231 81.9382" stroke="#444053" stroke-miterlimit="10"/>
<path d="M335.411 63.366C335.411 63.366 334.697 71.9227 330.05 75.9298" stroke="#444053" stroke-miterlimit="10"/>
<path d="M318.395 72.9841C318.395 72.9841 324.694 73.0262 326.17 70.9688" stroke="#444053" stroke-miterlimit="10"/>
<path d="M363.957 105.476H184.549V196.158H363.957V105.476Z" fill="#33323D"/>
<path d="M420.413 223.708H128.663V283.398H420.413V223.708Z" fill="#33323D"/>
<path d="M198.306 238.628H347.907L377.714 339.068H166.781L198.306 238.628Z" fill="white"/>
<path d="M120.351 188.12V219.116V225.643V283.394H176.237V228.299H372.838V283.394H428.725V225.643V219.116V188.12H120.351Z" fill="#504F60"/>
<path opacity="0.1" d="M428.725 188.12H120.351V219.111H428.725V188.12Z" fill="#33323D"/>
<path opacity="0.8" d="M412.105 208.212C414.638 208.212 416.691 206.156 416.691 203.62C416.691 201.085 414.638 199.029 412.105 199.029C409.573 199.029 407.52 201.085 407.52 203.62C407.52 206.156 409.573 208.212 412.105 208.212Z" fill="#8CCF4D"/>
<path opacity="0.8" d="M391.47 208.212C394.003 208.212 396.056 206.156 396.056 203.62C396.056 201.085 394.003 199.029 391.47 199.029C388.938 199.029 386.885 201.085 386.885 203.62C386.885 206.156 388.938 208.212 391.47 208.212Z" fill="#FA5959"/>
<path d="M357.368 83.6636H191.143V182.378H357.368V83.6636Z" fill="white"/>
<path d="M382.654 227.743C383.004 231.563 380.123 235.271 380.964 239.011C381.141 239.811 381.487 240.568 381.613 241.349C381.958 243.57 380.637 245.674 379.371 247.535L368.524 263.517C368.089 264.218 367.568 264.862 366.973 265.434C364.895 267.304 361.785 267.089 359.063 267.641C357.149 268.03 355.341 268.827 353.763 269.979C353.694 270.033 353.649 270.112 353.636 270.199C353.623 270.286 353.643 270.374 353.693 270.447C354.142 271.063 354.737 271.557 355.426 271.884C356.114 272.21 356.873 272.359 357.634 272.317C357.919 272.691 357.634 273.252 357.242 273.514C356.658 273.916 355.841 274.023 355.743 275.015C355.702 275.359 355.77 275.708 355.939 276.011C356.378 276.68 357.059 277.153 357.84 277.329C361.575 278.479 365.652 276.46 368.463 273.71C371.274 270.961 373.291 267.491 376.051 264.691C377.578 263.143 379.32 261.815 380.889 260.314C384.027 257.322 386.492 253.679 388.827 250.027C389.598 248.969 390.18 247.783 390.546 246.525C390.835 245.282 390.704 243.968 391.041 242.733C391.48 241.12 392.661 239.834 393.642 238.478C395.57 235.822 396.854 232.577 396.598 229.304C396.341 226.031 394.323 222.81 391.241 221.697C390.286 221.316 389.233 221.252 388.239 221.515C386.973 221.903 386.044 222.95 385.18 223.951L383.121 226.331C382.608 226.857 382.2 227.478 381.921 228.159C381.788 228.502 381.758 228.876 381.833 229.237C381.909 229.597 382.087 229.927 382.346 230.188" fill="#FBBEBE"/>
<path opacity="0.05" d="M382.654 227.743C383.004 231.563 380.123 235.271 380.964 239.011C381.141 239.811 381.487 240.568 381.613 241.349C381.958 243.57 380.637 245.674 379.371 247.535L368.524 263.517C368.089 264.218 367.568 264.862 366.973 265.434C364.895 267.304 361.785 267.089 359.063 267.641C357.149 268.03 355.341 268.827 353.763 269.979C353.694 270.033 353.649 270.112 353.636 270.199C353.623 270.286 353.643 270.374 353.693 270.447C354.142 271.063 354.737 271.557 355.426 271.884C356.114 272.21 356.873 272.359 357.634 272.317C357.919 272.691 357.634 273.252 357.242 273.514C356.658 273.916 355.841 274.023 355.743 275.015C355.702 275.359 355.77 275.708 355.939 276.011C356.378 276.68 357.059 277.153 357.84 277.329C361.575 278.479 365.652 276.46 368.463 273.71C371.274 270.961 373.291 267.491 376.051 264.691C377.578 263.143 379.32 261.815 380.889 260.314C384.027 257.322 386.492 253.679 388.827 250.027C389.598 248.969 390.18 247.783 390.546 246.525C390.835 245.282 390.704 243.968 391.041 242.733C391.48 241.12 392.661 239.834 393.642 238.478C395.57 235.822 396.854 232.577 396.598 229.304C396.341 226.031 394.323 222.81 391.241 221.697C390.286 221.316 389.233 221.252 388.239 221.515C386.973 221.903 386.044 222.95 385.18 223.951L383.121 226.331C382.608 226.857 382.2 227.478 381.921 228.159C381.788 228.502 381.758 228.876 381.833 229.237C381.909 229.597 382.087 229.927 382.346 230.188" fill="black"/>
<path d="M390.868 326.07C388.496 327.514 385.544 327.608 382.789 327.267C382.322 327.215 381.823 327.182 381.538 327.524C381.127 328.024 381.613 328.753 382.112 329.156C383.74 330.376 385.65 331.162 387.665 331.442C389.462 331.693 391.276 331.813 393.091 331.802C398.04 331.886 403.018 331.97 407.921 331.255C408.205 331.234 408.48 331.152 408.729 331.016C409.046 330.795 409.265 330.46 409.341 330.081C409.682 328.809 409.033 327.435 408.057 326.551C407.081 325.667 405.825 325.172 404.597 324.681L400.291 323.002C399.278 322.605 397.658 321.562 396.555 321.642C394.543 321.805 392.577 325.069 390.868 326.07Z" fill="#3F3D56"/>
<path opacity="0.05" d="M390.868 326.07C388.496 327.514 385.544 327.608 382.789 327.267C382.322 327.215 381.823 327.182 381.538 327.524C381.127 328.024 381.613 328.753 382.112 329.156C383.74 330.376 385.65 331.162 387.665 331.442C389.462 331.693 391.276 331.813 393.091 331.802C398.04 331.886 403.018 331.97 407.921 331.255C408.205 331.234 408.48 331.152 408.729 331.016C409.046 330.795 409.265 330.46 409.341 330.081C409.682 328.809 409.033 327.435 408.057 326.551C407.081 325.667 405.825 325.172 404.597 324.681L400.291 323.002C399.278 322.605 397.658 321.562 396.555 321.642C394.543 321.805 392.577 325.069 390.868 326.07Z" fill="black"/>
<path d="M393.87 268.815C392.082 271.204 390.223 273.958 390.667 276.918C390.905 278.512 391.797 279.92 392.451 281.393C393.269 283.419 393.875 285.525 394.258 287.677C394.93 290.805 395.603 293.942 396.014 297.117C396.481 300.703 394.286 311.079 394.081 314.693C394.029 315.563 393.931 316.508 393.324 317.134C393.086 317.382 392.768 317.602 392.666 317.906C392.6 318.215 392.65 318.538 392.806 318.813C393.819 321.099 395.888 322.796 398.185 323.769C400.483 324.742 406.072 326.411 408.566 326.5C408.897 326.54 409.233 326.495 409.542 326.369C409.878 326.167 410.143 325.864 410.298 325.504C412.101 322.058 410.368 309.788 410.396 305.894C410.396 302.621 411.186 299.422 411.045 296.177C410.929 293.573 410.233 291.034 409.981 288.434C409.565 284.175 410.345 279.901 411.129 275.693C411.727 272.471 412.325 269.245 413.091 266.056C413.558 264.116 414.099 262.152 415.169 260.445C416.014 259.103 417.163 257.986 418.129 256.704C420.808 253.188 421.998 248.757 421.44 244.37C421.384 243.94 415.22 245.936 414.683 246.17C412.471 247.112 410.436 248.424 408.664 250.051C407.263 251.407 406.119 253.226 404.867 254.75C403.102 256.901 401.361 259.069 399.642 261.254C397.69 263.763 395.766 266.284 393.87 268.815Z" fill="#464353"/>
<path opacity="0.05" d="M393.87 268.66C392.082 271.05 390.223 273.804 390.667 276.768C390.905 278.358 391.797 279.765 392.451 281.238C393.269 283.265 393.874 285.371 394.258 287.522C394.93 290.651 395.603 293.788 396.014 296.963C396.481 300.549 394.286 310.929 394.081 314.544C394.029 315.409 393.931 316.358 393.324 316.98C393.086 317.228 392.768 317.447 392.666 317.751C392.595 318.07 392.645 318.403 392.806 318.686C393.819 320.968 395.888 322.67 398.185 323.638C400.483 324.606 406.072 325.508 408.566 325.588C408.897 325.628 409.233 325.583 409.542 325.457C409.878 325.255 410.143 324.953 410.298 324.592C412.101 321.146 410.368 309.658 410.396 305.767C410.396 302.494 411.186 299.291 411.045 296.046C410.929 293.442 410.233 290.903 409.981 288.303C409.565 284.044 410.345 279.77 411.129 275.567C411.727 272.34 412.325 269.114 413.091 265.925C413.558 263.985 414.099 262.021 415.169 260.314C416.014 258.977 417.163 257.855 418.129 256.602C420.805 253.084 421.994 248.654 421.44 244.267C421.384 243.832 415.22 245.829 414.683 246.067C412.469 247.01 410.433 248.326 408.664 249.957C407.263 251.318 406.119 253.132 404.867 254.633C403.102 256.784 401.361 258.953 399.642 261.142C397.69 263.635 395.766 266.142 393.87 268.66Z" fill="black"/>
<path d="M373.936 216.208C379.488 216.208 383.99 211.7 383.99 206.141C383.99 200.581 379.488 196.074 373.936 196.074C368.383 196.074 363.882 200.581 363.882 206.141C363.882 211.7 368.383 216.208 373.936 216.208Z" fill="#FBBEBE"/>
<path d="M382.986 205.72C383.914 207.205 385.131 208.487 386.565 209.491C387.998 210.495 389.619 211.2 391.33 211.565L390.574 214.309C389.266 219.046 387.772 224.054 384.144 227.336C384.541 225.732 384.027 224.007 383.121 222.627C382.152 221.286 381.003 220.084 379.707 219.055L373.922 214.015C373.749 213.887 373.602 213.729 373.487 213.547C373.348 213.193 373.348 212.798 373.487 212.444C374.225 210.148 376.331 208.703 378.036 207.16C378.893 206.356 379.66 205.461 380.324 204.49C381.51 202.84 382.224 204.49 382.986 205.72Z" fill="#FBBEBE"/>
<path d="M360.688 196.022L360.464 194.152C362.052 194.563 363.555 193.217 364.568 191.814C365.582 190.411 366.525 188.766 368.071 188.186C369.939 187.475 371.937 188.611 373.73 189.546C375.741 190.667 377.947 191.389 380.23 191.674C380.595 191.686 380.956 191.746 381.304 191.852C382.472 192.268 383.028 193.722 383.196 195.064C383.364 196.406 383.317 197.808 383.896 198.996C384.33 199.894 385.082 200.562 385.54 201.446C386.768 203.831 385.582 207.085 386.88 209.423L383.658 206.463C383.359 206.192 382.943 205.912 382.621 206.141C382.299 206.37 382.346 206.716 382.238 207.029C381.926 207.964 380.781 208.226 379.946 207.866C379.11 207.506 378.507 206.711 377.896 205.996C376.471 204.312 374.776 202.835 372.759 202.115C371.886 201.78 370.952 201.635 370.018 201.691C369.085 201.746 368.174 202.001 367.347 202.437C365.843 203.288 364.741 205.271 362.901 205.341C360.375 205.435 359.324 200.726 358.152 198.865C358.579 198.542 358.879 198.079 359 197.557C359.121 197.035 359.056 196.487 358.815 196.008C359.021 195.929 360.655 195.718 360.688 196.022Z" fill="#464353"/>
<path d="M402.593 325.99C400.606 327.764 398.027 328.727 395.365 328.688C394.688 328.688 393.749 328.819 393.744 329.497C393.756 329.699 393.824 329.893 393.941 330.058C394.784 331.461 396.114 332.503 397.676 332.985C399.124 333.425 400.674 333.35 402.187 333.275L406.6 333.046C407.431 332.999 408.267 332.957 409.098 332.854C409.929 332.751 410.826 332.578 411.694 332.452C413.822 332.147 415.973 332.046 418.12 332.148C418.69 332.171 419.348 332.148 419.703 331.718C420.058 331.288 419.866 330.512 419.736 329.89C419.474 328.608 419.736 327.267 419.493 325.981C419.068 323.722 417.13 321.997 414.991 321.179C413.007 320.421 409.486 319.556 407.604 320.814C405.587 322.17 404.373 324.377 402.593 325.99Z" fill="#3F3D56"/>
<path d="M406.964 250.425C407.356 252.295 409.145 253.698 409.201 255.568C409.243 257.083 408.16 258.374 407.384 259.66C406.644 261.007 406.019 262.415 405.517 263.868C404.043 267.64 402.217 271.264 400.062 274.692C399.026 276.333 397.868 278.119 398.106 280.051C398.269 280.952 398.585 281.818 399.04 282.613L402.145 288.79C402.827 290.023 403.36 291.334 403.733 292.694C403.999 293.867 404.027 295.083 404.2 296.28C404.69 300.068 406.464 303.883 405.418 307.553C405.325 307.871 404.998 308.255 404.751 308.021C405.773 309.938 406.619 311.874 406.521 314.048C406.479 315.189 406.128 316.386 406.553 317.443C406.794 317.854 406.952 318.308 407.02 318.78C407.02 319.089 406.875 319.383 406.843 319.715C406.759 320.59 407.557 321.319 408.393 321.585C409.229 321.852 410.13 321.843 410.971 322.095C412.591 322.563 413.74 323.965 415.127 324.938C416.531 325.913 418.19 326.455 419.899 326.495C420.141 326.521 420.386 326.472 420.599 326.355C420.722 326.248 420.82 326.117 420.888 325.969C420.956 325.822 420.991 325.661 420.992 325.499C421.066 324.725 420.949 323.944 420.651 323.226C420.353 322.507 419.883 321.873 419.283 321.38C419.022 321.213 418.805 320.985 418.652 320.716C418.573 320.476 418.553 320.221 418.592 319.972C418.844 316.573 418.783 313.158 418.409 309.77C418.241 308.697 418.186 307.609 418.246 306.525C418.339 305.622 418.61 304.725 418.507 303.822C418.405 302.92 417.952 302.106 417.681 301.236C417.214 299.693 417.335 298.038 417.284 296.42C417.2 293.615 416.56 290.866 415.921 288.135C415.673 287.064 415.393 285.937 414.632 285.142C413.987 284.469 412.946 283.819 413.189 282.922C413.321 282.589 413.522 282.288 413.777 282.038C414.078 281.661 414.299 281.226 414.427 280.761C414.555 280.295 414.586 279.809 414.52 279.331C414.793 279.403 415.083 279.378 415.339 279.258C415.595 279.138 415.801 278.932 415.921 278.676C420.968 276.296 425.05 271.527 426.847 266.234C426.948 265.843 427.106 265.47 427.314 265.126C427.781 264.471 428.594 264.19 429.313 263.826C431.573 262.689 433.137 260.553 434.571 258.463C435.407 257.247 436.238 255.994 436.598 254.568C436.794 253.646 436.888 252.705 436.878 251.762L437.004 246.89C437.029 246.575 436.998 246.258 436.911 245.955C436.792 245.664 436.614 245.401 436.388 245.183C435.018 243.723 433.218 242.74 431.251 242.378C429.925 242.139 428.571 242.186 427.23 242.074C424.629 241.859 422.061 241.055 419.46 241.242C415.369 241.541 411.732 244.379 409.803 248.003C409.126 249.298 408.416 250.425 406.964 250.425Z" fill="#464353"/>
<path d="M384.27 218.742C384.329 219.493 384.229 220.248 383.976 220.958C383.658 221.641 382.855 222.169 382.159 221.893C382.369 221.426 381.809 220.869 381.29 220.93C381.034 220.987 380.795 221.106 380.595 221.276C380.395 221.447 380.239 221.663 380.142 221.907C379.793 222.602 379.677 223.391 379.81 224.156C379.974 225.092 380.525 226.027 380.38 226.962C380.263 227.757 379.679 228.552 379.992 229.3C380.193 229.636 380.446 229.939 380.739 230.197C381.15 230.701 381.351 231.344 381.302 231.992C381.252 232.641 380.955 233.245 380.473 233.681L388.309 233.835C388.024 235.149 388.608 236.491 389.28 237.655C391.162 240.855 393.758 243.576 396.865 245.604C399.971 247.632 403.505 248.912 407.188 249.345C406.99 249.462 406.819 249.623 406.69 249.814C406.56 250.005 406.474 250.223 406.438 250.451C406.403 250.68 406.418 250.913 406.483 251.135C406.548 251.357 406.661 251.561 406.815 251.734C407.45 252.365 408.528 252.286 409.327 251.874C410.125 251.463 410.756 250.785 411.484 250.261C412.769 249.344 414.34 248.92 415.911 249.064C416.892 249.158 417.844 249.476 418.83 249.532C421.734 249.686 424.228 247.596 427.006 246.726C429.042 246.1 431.344 246.1 433.077 244.828C433.815 244.281 434.417 243.383 434.202 242.49C434.02 241.978 433.732 241.509 433.357 241.115C432.372 239.844 431.793 238.31 431.092 236.865C429.695 234.001 427.774 231.426 425.428 229.272C423.661 227.721 421.788 226.294 419.824 225.003C419.346 224.646 418.837 224.333 418.302 224.068C417.589 223.835 416.893 223.552 416.219 223.221C415.285 222.641 414.767 221.617 414.062 220.79C412.507 218.976 410.121 218.139 408.206 216.713C406.922 215.777 405.792 214.496 404.256 214.033C403.513 213.809 402.719 213.79 401.972 213.566C400.282 213.051 399.049 211.546 397.387 210.938C396.07 210.47 394.622 210.583 393.231 210.41C391.7 210.22 390.238 209.663 388.967 208.787C388.546 208.447 388.073 208.175 387.566 207.983C385.47 207.342 385.297 211.256 385.101 212.617C384.788 214.697 384.27 216.699 384.27 218.742Z" fill="#6246EA"/>
<path d="M386.315 231.881C386.665 235.701 383.784 239.404 384.625 243.149C384.802 243.949 385.148 244.706 385.274 245.487C385.624 247.708 384.298 249.812 383.032 251.669L372.185 267.613C371.75 268.314 371.229 268.958 370.634 269.53C368.556 271.4 365.446 271.185 362.724 271.737C360.81 272.127 359.003 272.924 357.424 274.075C357.355 274.129 357.31 274.208 357.297 274.295C357.284 274.382 357.304 274.47 357.354 274.542C357.802 275.16 358.397 275.655 359.086 275.982C359.775 276.308 360.534 276.457 361.295 276.413C361.58 276.792 361.295 277.348 360.903 277.61C360.319 278.017 359.502 278.124 359.404 279.115C359.363 279.46 359.431 279.808 359.6 280.111C360.04 280.779 360.721 281.252 361.5 281.43C365.236 282.58 369.313 280.56 372.124 277.811C374.935 275.061 376.952 271.592 379.717 268.791C381.244 267.244 382.986 265.916 384.55 264.415C387.693 261.422 390.13 257.78 392.488 254.128C393.258 253.069 393.84 251.884 394.207 250.626C394.496 249.382 394.365 248.068 394.702 246.834C395.141 245.221 396.322 243.93 397.303 242.579C399.231 239.923 400.515 236.678 400.259 233.405C400.002 230.132 397.984 226.91 394.902 225.798C393.947 225.414 392.894 225.35 391.9 225.615C390.639 226.003 389.705 227.051 388.841 228.051L386.782 230.431C386.269 230.957 385.862 231.578 385.587 232.26C385.453 232.601 385.422 232.975 385.496 233.334C385.571 233.694 385.748 234.024 386.007 234.284" fill="#FBBEBE"/>
<path d="M391.806 216.184C390.378 216.268 388.809 216.409 387.8 217.428C387.38 217.896 387.039 218.43 386.791 219.008C385.815 221.005 384.863 223.09 384.793 225.311C384.732 227.088 385.26 228.823 385.516 230.581C385.741 232.04 385.171 233.527 385.049 235.004C386.819 234.462 389.154 233.723 390.76 232.807C391.813 232.117 392.931 231.534 394.099 231.067C395.804 230.501 398.666 231.474 400.273 232.274C400.361 231.133 399.511 229.155 399.6 228.014C399.614 227.536 399.699 227.064 399.852 226.611C400.094 226.132 400.38 225.676 400.707 225.251C401.326 224.247 401.611 223.072 401.522 221.896C401.432 220.72 400.972 219.602 400.207 218.704C398.774 217.087 396.523 216.479 394.379 216.231C393.028 216.073 391.667 216.025 390.308 216.086" fill="#6246EA"/>
<path d="M180.248 183.473L171.04 170.1C171.04 170.1 170.867 166.789 170.265 166.018C169.662 165.246 170.134 163.526 170.134 163.526C170.134 163.526 170.783 162.591 170.223 162.492C169.662 162.394 170.134 160.299 170.134 160.299L170.092 156.947C170.092 156.947 170.61 153.721 170.181 152.949C170.054 152.74 169.99 152.498 169.998 152.253C170.005 152.008 170.083 151.771 170.223 151.57C170.223 151.57 170.736 149.723 170.223 149.232C169.709 148.741 169.835 145.879 169.961 143.598C170.087 141.316 169.06 140.03 169.06 139.689C169.06 139.347 165.66 135.99 165.66 135.686C165.66 135.382 163.508 134.138 162.214 133.816C160.921 133.493 160.281 133.213 160.323 133.04C160.365 132.867 158.301 132.184 158.301 132.184C158.301 132.184 156.494 132.053 155.803 131.151C155.112 130.248 153.001 129.986 152.95 129.977L152.907 129.799C152.907 129.734 152.884 129.668 152.87 129.603C153.041 129.331 153.196 129.05 153.337 128.761L153.459 128.5C154.215 128.504 154.954 128.274 155.574 127.84C155.879 127.587 156.128 127.273 156.306 126.918C156.484 126.563 156.586 126.175 156.606 125.778C156.643 124.983 156.469 124.193 156.102 123.487C155.723 122.716 155.168 121.911 155.364 121.07C155.448 120.71 155.663 120.392 155.775 120.036C155.942 119.343 155.831 118.611 155.466 117.998C155.14 117.376 154.687 116.824 154.322 116.221C153.86 115.449 153.551 114.595 153.412 113.705C153.386 113.232 153.273 112.768 153.08 112.335C152.885 112.031 152.627 111.771 152.324 111.573C150.976 110.611 149.351 110.118 147.696 110.17C146.524 110.208 145.361 110.526 144.194 110.381C143.498 110.261 142.814 110.083 142.149 109.848C140.706 109.418 139.039 109.245 137.783 110.072C136.526 110.9 136.027 112.527 135.172 113.813C134.42 114.935 133.304 115.88 132.744 117.086C132.744 117.086 132.744 117.039 132.744 117.02C132.603 117.295 132.495 117.585 132.422 117.886C132.261 118.838 132.327 119.815 132.613 120.738C132.676 121.234 132.925 121.689 133.309 122.01C133.734 122.285 134.318 122.22 134.813 122.309L134.757 122.552C134.253 124.969 134.674 127.487 135.938 129.608C137.202 131.728 139.215 133.295 141.579 133.998C141.579 134.087 141.579 134.171 141.579 134.26C141.578 134.507 141.562 134.754 141.532 134.999C141.532 134.999 137.203 134.106 136.041 134.709C134.878 135.312 132.599 135.784 132.254 136.112C131.908 136.439 131.049 136.201 130.274 138.22C129.499 140.24 129.415 142.302 128.406 143.252C127.397 144.201 126.902 144.841 126.856 145.529C126.809 146.216 126.986 146.389 126.599 146.604C126.211 146.819 125.665 147.722 125.824 148.068C125.883 148.304 125.87 148.553 125.787 148.782C125.704 149.011 125.554 149.21 125.357 149.353C125.152 149.497 124.989 149.692 124.884 149.918C124.778 150.145 124.733 150.395 124.754 150.644C124.754 150.644 124.493 151.579 123.89 151.808C123.288 152.037 122.9 153.44 122.9 153.44L120.948 155.684L117.082 151.401C116.792 151.081 116.386 150.889 115.955 150.867C115.524 150.845 115.101 150.995 114.78 151.285L112.879 152.996C112.147 153.174 111.485 153.568 110.979 154.127C110.567 154.555 110.233 155.052 109.993 155.596L108.957 156.531C108.629 156.937 108.429 157.431 108.381 157.951C108.332 158.471 108.439 158.993 108.686 159.453L111.166 162.198V162.221C110.287 162.299 109.452 162.639 108.77 163.198C105.072 166.471 105.034 169.478 105.585 170.853C106.136 172.227 110.834 177.516 110.834 177.516C110.834 177.516 113.561 181.065 117.498 182.949L117.47 182.982C117.389 183.066 117.312 183.155 117.241 183.248L117.175 183.332L117.115 183.416L117.045 183.519C117.026 183.546 117.009 183.574 116.993 183.603L116.919 183.725C116.901 183.752 116.886 183.78 116.872 183.809C116.839 183.865 116.811 183.921 116.783 183.978C116.773 183.996 116.764 184.014 116.755 184.034C116.718 184.108 116.68 184.183 116.648 184.267L116.61 184.352C116.587 184.408 116.568 184.464 116.545 184.525C116.53 184.561 116.518 184.599 116.508 184.637L116.452 184.805C116.436 184.845 116.424 184.885 116.414 184.927C116.414 184.987 116.377 185.048 116.363 185.114C116.349 185.179 116.34 185.189 116.33 185.231C116.321 185.273 116.283 185.432 116.265 185.539C116.265 185.577 116.265 185.619 116.241 185.661C116.218 185.703 116.218 185.806 116.204 185.881C116.19 185.955 116.204 185.983 116.204 186.04L116.176 186.25V186.418C116.176 186.498 116.176 186.577 116.153 186.661C116.129 186.746 116.153 186.76 116.153 186.811C116.153 186.947 116.153 187.082 116.153 187.227C116.069 192.258 116.363 192.988 116.363 192.988C116.555 193.452 116.868 193.857 117.27 194.159C117.672 194.461 118.147 194.649 118.646 194.704C118.891 194.723 119.138 194.71 119.379 194.666C121.621 194.278 126.851 193.376 128.719 193.731C129.835 193.937 131.894 193.628 133.36 193.352L133.748 193.278L134.014 194.133L134.864 193.899L135.588 194.316L136.055 194.582C136.905 197.462 140.351 196.481 140.351 196.481L141.168 196.948L149.475 197.163C150.408 197.726 151.393 198.196 152.417 198.566C152.552 198.61 152.692 198.641 152.833 198.659C153.609 198.723 154.389 198.737 155.168 198.702C155.803 198.702 156.293 198.659 156.293 198.659C156.293 198.659 156.209 196.401 156.088 193.871C158.663 193.808 161.232 193.597 163.783 193.24C168.219 192.464 170.068 188.424 170.75 186.264C170.954 187.146 171.099 188.041 171.184 188.943C171.366 189.736 171.597 190.517 171.876 191.281C172.113 191.892 172.427 192.47 172.81 193.002C176.078 191.884 174.098 190.196 173.412 189.476C172.725 188.756 173.879 188.144 173.879 188.144C173.879 188.144 174.785 187.54 174.696 186.984C174.607 186.428 174.565 185.824 177.498 185.867C180.43 185.909 180.248 183.473 180.248 183.473ZM134.803 156.021C134.841 156.264 135.27 158.915 135.616 159.612C135.719 160.072 135.752 160.545 135.714 161.015C133.981 160.875 132.174 160.8 132.174 160.8C132.225 160.863 132.257 160.939 132.268 161.019L131.992 160.959L131.6 160.865L134.794 155.998L134.803 156.021ZM128.471 166.102L131.474 166.57L131.726 166.607C131.641 167.07 131.59 167.539 131.572 168.01C131.572 168.057 131.637 168.108 131.735 168.169C131.694 168.405 131.675 168.644 131.679 168.884C131.726 169.118 133.127 169.632 134.738 170.058C134.715 170.147 134.696 170.231 134.673 170.306C133.248 169.557 131.012 169.207 130.755 168.65C130.498 168.094 122.877 165.429 122.877 165.429L122.121 165.05L124.124 165.429L124.675 165.373C125.923 165.698 127.191 165.942 128.471 166.102Z" fill="url(#paint0_linear_485_210)"/>
<path d="M170.451 185.343C170.451 185.343 169.261 192.562 163.204 193.628C157.148 194.694 136.928 194.484 136.928 194.484C136.928 194.484 125.366 192.815 121.187 183.038C117.007 173.261 114.318 169.366 117.918 169.197C121.518 169.029 140.827 175.743 141.934 175.818C143.041 175.893 171.521 160.954 170.451 185.343Z" fill="#65617D"/>
<path opacity="0.05" d="M170.451 185.343C170.451 185.343 169.261 192.562 163.204 193.628C157.148 194.694 136.928 194.484 136.928 194.484C136.928 194.484 125.366 192.815 121.187 183.038C117.007 173.261 114.318 169.366 117.918 169.197C121.518 169.029 140.827 175.743 141.934 175.818C143.041 175.893 171.521 160.954 170.451 185.343Z" fill="black"/>
<path d="M116.232 193.38C116.42 193.843 116.729 194.246 117.127 194.546C117.525 194.847 117.997 195.034 118.492 195.087C118.737 195.102 118.984 195.088 119.225 195.045C121.443 194.662 126.645 193.764 128.481 194.11C129.583 194.311 131.623 194.007 133.076 193.736C134.042 193.554 134.752 193.38 134.752 193.38C134.752 193.38 133.043 187.699 132.833 187.531C132.623 187.363 125.151 182.855 125.151 182.855L119.239 182.43C118.443 182.549 117.724 182.971 117.231 183.608C116.61 184.366 116.073 185.605 116.036 187.639C115.938 192.646 116.232 193.38 116.232 193.38Z" fill="#3F3D56"/>
<path opacity="0.05" d="M116.232 193.38C116.42 193.843 116.729 194.246 117.127 194.546C117.525 194.847 117.997 195.034 118.492 195.087C117.913 194.339 117.377 193.558 116.886 192.749L116.919 188.607C116.801 187.47 116.951 186.322 117.357 185.255C117.762 184.187 118.412 183.229 119.253 182.458C119.253 182.458 116.139 182.668 116.05 187.667C115.961 192.665 116.232 193.38 116.232 193.38Z" fill="black"/>
<path opacity="0.1" d="M141.873 184.319L147.379 180.003L156.036 171.46L153.701 171.353C153.351 171.577 152.37 172.288 152.333 173.139C152.291 174.182 149.998 173.214 148.798 173.808C147.598 174.402 141.761 181.897 140.738 181.845C139.716 181.794 138.903 181.326 138.474 182.056L138.446 182.103L141.873 184.319Z" fill="black"/>
<path opacity="0.1" d="M117.217 183.617C117.414 183.711 117.614 183.805 117.815 183.889C121.994 185.684 127.154 189.443 127.542 190.126C127.775 190.542 130.769 192.361 133.076 193.726C134.042 193.544 134.752 193.371 134.752 193.371C134.752 193.371 133.043 187.69 132.833 187.522C132.623 187.353 125.151 182.846 125.151 182.846L119.239 182.42C118.436 182.541 117.71 182.97 117.217 183.617Z" fill="black"/>
<path d="M105.618 171.376C106.169 172.742 110.82 177.997 110.82 177.997C110.82 177.997 113.762 181.841 117.946 183.608C122.13 185.376 127.285 189.163 127.668 189.846C127.916 190.285 131.25 192.296 133.594 193.675L134.122 193.984L135.284 194.662L135.901 195.012C135.901 195.012 137.33 193.867 138.754 192.712C140.178 191.557 141.556 190.425 141.556 190.374C141.556 190.323 142.153 188.794 142.023 188.709C141.892 188.625 141.663 188.073 141.121 187.386C140.55 186.624 139.805 186.009 138.95 185.591C137.712 184.954 136.725 183.918 136.148 182.65C136.148 182.65 135.961 182.514 135.681 182.332C135.1 181.932 134.452 181.642 133.767 181.476C132.833 181.359 131.077 179.437 131.077 179.437C130.394 178.992 129.825 178.393 129.415 177.689C128.948 176.753 122.349 172.199 121.738 171.778L137.773 182.093L141.612 184.562L147.117 180.251L155.775 171.708L152.917 171.577C148.714 171.395 141.243 171.11 140.309 171.325C139.544 171.501 138.755 171.553 137.974 171.479C137.974 171.479 135.845 171.573 134.434 170.829C133.024 170.086 130.806 169.735 130.549 169.183C130.292 168.632 122.746 165.985 122.746 165.985C122.746 165.985 112.473 160.519 108.798 163.764C105.123 167.009 105.062 170.002 105.618 171.376Z" fill="#65617D"/>
<path d="M138.758 140.025L140.08 144.425L141.789 154.333L148.06 154.759L149.854 151.766L151.665 148.755C151.665 148.755 152.795 144.752 153.608 140.881C154.322 137.454 154.794 134.124 154.014 133.764C153.318 133.446 152.865 132.292 152.567 131.048C152.529 130.898 152.497 130.739 152.469 130.58C152.259 129.529 152.119 128.465 152.048 127.396C152.048 127.396 138.913 126.713 140.748 132.137C141.075 133.064 141.243 134.039 141.243 135.022C141.243 135.275 141.243 135.523 141.196 135.756C141.105 136.598 140.841 137.411 140.422 138.145C140.003 138.88 139.436 139.52 138.758 140.025Z" fill="#EE8E9E"/>
<path d="M136.031 139.301L136.498 146.782L137.563 153.145L138.758 156.096L139.828 172.218C139.828 172.218 150.101 173.41 152.613 172.195C152.799 172.124 152.96 172.002 153.08 171.844C156.102 167.276 155.112 154.043 155.112 154.043L156.26 145.501L155.494 141.068L153.627 140.872L152.198 140.717C152.198 140.717 151.876 141.115 151.409 141.732C150.143 143.401 147.818 146.693 147.976 148.063C148.186 149.933 147.72 151.864 146.991 152.164C146.263 152.463 145.67 152.977 145.543 152.463C145.362 152.032 145.316 151.555 145.413 151.097C145.543 150.368 144.857 148.147 144.857 148.147C144.857 148.147 143.708 145.543 143.792 144.435C143.876 143.326 143.666 142.041 143.325 141.741C142.984 141.442 142.513 141.143 142.896 139.777C143.279 138.412 141.215 135.752 141.215 135.752L136.031 139.301Z" fill="#E3E8F4"/>
<path opacity="0.1" d="M149.615 157.966L150.045 170.736L152.506 172.106C152.691 172.031 152.852 171.909 152.973 171.75C155.994 167.182 155.004 153.95 155.004 153.95L156.158 145.407L155.387 140.974L153.519 140.778C154.238 137.351 154.705 134.026 153.925 133.662C153.23 133.344 152.777 132.189 152.483 130.95L151.152 139.983C151.152 139.983 151.264 140.797 151.301 141.638C151.356 142.171 151.32 142.708 151.194 143.228C151.021 143.927 150.993 144.654 151.11 145.365C150.339 146.721 149.956 149.237 149.77 151.663C149.517 154.89 149.615 157.966 149.615 157.966Z" fill="black"/>
<path d="M152.52 130.725C152.52 130.725 154.673 130.992 155.354 131.889C156.036 132.787 157.829 132.918 157.829 132.918C157.829 132.918 159.875 133.601 159.833 133.769C159.791 133.937 160.43 134.199 161.7 134.541C162.971 134.882 165.114 136.121 165.114 136.411C165.114 136.701 168.481 140.039 168.481 140.381C168.481 140.722 169.503 142.003 169.377 144.266C169.251 146.529 169.12 149.41 169.634 149.877C170.148 150.345 169.634 152.182 169.634 152.182C169.496 152.382 169.419 152.618 169.411 152.861C169.404 153.104 169.467 153.344 169.592 153.552C170.017 154.319 169.503 157.522 169.503 157.522L169.55 160.856C169.55 160.856 169.083 162.946 169.634 163.035C170.185 163.124 169.55 164.059 169.55 164.059C169.55 164.059 169.083 165.765 169.676 166.537C170.269 167.308 170.442 170.591 170.442 170.591L179.571 183.875C179.571 183.875 179.702 186.311 176.802 186.269C173.902 186.227 173.94 186.825 174.028 187.377C174.117 187.929 173.216 188.532 173.216 188.532C173.216 188.532 172.067 189.13 172.749 189.855C173.431 190.58 175.392 192.249 172.151 193.357C171.769 192.83 171.455 192.256 171.217 191.65C170.943 190.897 170.715 190.127 170.535 189.345C170.535 189.345 170.237 186.096 169.639 185.67C169.041 185.245 169.125 183.192 169.125 183.192C169.125 183.192 169.98 181.527 168.784 180.854C167.589 180.181 150.274 170.567 150.274 170.567L149.854 157.793C149.854 157.793 149.555 148.353 151.348 145.192C151.231 144.481 151.259 143.754 151.432 143.055C151.731 142.288 151.39 139.81 151.39 139.81L152.52 130.725Z" fill="#3F3D56"/>
<path opacity="0.1" d="M141.341 135.869C141.341 135.869 137.054 134.985 135.901 135.583C134.747 136.182 132.492 136.649 132.165 136.986C131.838 137.323 130.974 137.075 130.204 139.081C129.433 141.087 129.354 143.139 128.369 144.079C127.383 145.019 126.879 145.66 126.837 146.342C126.795 147.025 126.963 147.198 126.58 147.408C126.197 147.619 125.646 148.521 125.81 148.863C125.973 149.204 134.682 156.722 134.682 156.722C134.682 156.722 135.111 159.584 135.494 160.309C135.877 161.034 135.069 171.03 134.215 171.713C133.36 172.396 139.954 172.34 139.954 172.34C139.954 172.34 140.253 165.793 140.51 165.438C140.766 165.083 140.337 158.092 140.337 158.092C140.337 158.092 140.295 152.112 140.85 150.532C141.406 148.951 141.317 143.696 141.317 143.696C141.317 143.696 141.808 140.544 142.405 139.81C143.003 139.076 141.341 135.869 141.341 135.869Z" fill="black"/>
<path d="M141.215 135.742C141.215 135.742 136.928 134.859 135.775 135.452C134.621 136.046 132.361 136.523 132.039 136.855C131.717 137.187 130.843 136.939 130.078 138.95C129.312 140.96 129.223 143.004 128.242 143.944C127.262 144.883 126.748 145.524 126.706 146.207C126.664 146.889 126.837 147.062 126.449 147.277C126.062 147.492 125.515 148.386 125.683 148.727C125.852 149.068 134.556 156.587 134.556 156.587C134.556 156.587 134.981 159.448 135.368 160.173C135.756 160.898 134.939 170.895 134.084 171.577C133.23 172.26 139.847 172.199 139.847 172.199C139.847 172.199 140.145 165.653 140.398 165.302C140.65 164.952 140.229 157.952 140.229 157.952C140.229 157.952 140.187 151.977 140.743 150.396C141.299 148.816 141.233 143.56 141.233 143.56C141.233 143.56 141.724 140.409 142.321 139.675C142.919 138.941 141.215 135.742 141.215 135.742Z" fill="#3F3D56"/>
<path opacity="0.1" d="M140.766 132.128C141.094 133.054 141.261 134.03 141.261 135.013C143.357 135.627 145.597 135.524 147.627 134.719C149.657 133.915 151.361 132.455 152.469 130.571C152.259 129.52 152.119 128.456 152.048 127.387C152.048 127.387 138.931 126.699 140.766 132.128Z" fill="black"/>
<path d="M134.28 125.376C134.279 127.883 135.238 130.295 136.96 132.114C138.682 133.934 141.036 135.022 143.536 135.155C146.036 135.288 148.492 134.455 150.396 132.828C152.301 131.201 153.51 128.905 153.773 126.412C154.037 123.919 153.334 121.42 151.811 119.43C150.289 117.44 148.061 116.111 145.589 115.718C143.116 115.324 140.587 115.895 138.523 117.314C136.459 118.733 135.017 120.89 134.495 123.342C134.352 124.011 134.28 124.692 134.28 125.376Z" fill="#EE8E9E"/>
<path d="M128.009 148.026L125.674 148.75C125.734 148.986 125.721 149.234 125.638 149.463C125.555 149.691 125.405 149.89 125.207 150.031C125.004 150.173 124.842 150.367 124.738 150.592C124.634 150.817 124.591 151.066 124.614 151.313C124.614 151.313 124.357 152.248 123.76 152.467C123.162 152.687 122.779 154.09 122.779 154.09L120.818 156.353C120.818 156.353 120.089 156.952 120.22 157.251C120.351 157.55 119.45 157.634 119.45 157.634L119.916 165.237L123.97 166.009L126.487 165.751L128.532 164.985L130.325 163.914L131.133 161.824L134.719 156.353L128.009 148.026Z" fill="#3F3D56"/>
<path d="M120.033 158.219C120.033 158.219 114.831 150.705 110.946 154.759C107.061 158.813 112.524 165.396 113.804 165.181C115.083 164.966 121.187 164.625 121.187 164.625L120.033 158.219Z" fill="#EE8E9E"/>
<path d="M132.288 154.97L109.309 143.225C108.955 143.045 108.522 143.185 108.341 143.539L99.3807 161.118C99.2001 161.473 99.3405 161.906 99.6943 162.087L122.674 173.831C123.028 174.012 123.461 173.872 123.641 173.517L132.602 155.938C132.783 155.584 132.642 155.15 132.288 154.97Z" fill="#3F3D56"/>
<path d="M130.151 156.014L109.758 145.592L101.914 160.98L122.307 171.402L130.151 156.014Z" fill="#6246EA"/>
<path d="M105.053 153.253C105.259 153.253 105.427 153.086 105.427 152.879C105.427 152.672 105.259 152.505 105.053 152.505C104.847 152.505 104.679 152.672 104.679 152.879C104.679 153.086 104.847 153.253 105.053 153.253Z" fill="#E6E8EC"/>
<path d="M127.126 164.826C127.469 164.826 127.747 164.547 127.747 164.204C127.747 163.86 127.469 163.582 127.126 163.582C126.783 163.582 126.505 163.86 126.505 164.204C126.505 164.547 126.783 164.826 127.126 164.826Z" fill="#E6E8EC"/>
<path d="M116.666 159.799C116.62 165.438 128.266 166.635 128.266 166.635L131.24 167.103L132.576 167.313L133.132 161.805C133.132 161.805 132.52 161.711 131.759 161.534C130.629 161.272 129.167 160.818 128.863 160.178C128.373 159.116 116.699 154.16 116.666 159.799Z" fill="#EE8E9E"/>
<path opacity="0.1" d="M134.495 123.342C134.763 123.362 135.015 123.474 135.21 123.66C135.536 124.011 135.555 124.633 135.985 124.848C136.145 124.916 136.322 124.935 136.494 124.904C137.628 124.745 138.282 123.464 139.375 123.108C140.01 122.945 140.682 123.003 141.28 123.272C141.523 123.351 141.742 123.491 141.915 123.679C142.279 124.146 142.023 124.848 142.191 125.418C142.424 126.213 143.372 126.526 144.189 126.629C145.006 126.732 145.931 126.793 146.477 127.41C146.658 127.641 146.788 127.909 146.858 128.194C146.928 128.479 146.937 128.776 146.884 129.065C146.835 129.266 146.835 129.477 146.884 129.678C147.108 130.318 148.215 130.22 148.504 129.715C148.719 129.346 148.653 129.042 149.153 128.939C149.51 128.911 149.868 128.973 150.194 129.121C151.064 129.42 151.979 129.561 152.898 129.538C153.483 128.289 153.797 126.932 153.821 125.553C153.844 124.175 153.577 122.808 153.036 121.54C152.495 120.272 151.692 119.134 150.681 118.199C149.669 117.263 148.472 116.553 147.167 116.113C145.862 115.674 144.479 115.516 143.109 115.649C141.739 115.782 140.412 116.204 139.216 116.886C138.02 117.569 136.982 118.497 136.169 119.61C135.356 120.722 134.787 121.994 134.5 123.342H134.495Z" fill="black"/>
<path d="M146.879 129.421C146.83 129.219 146.83 129.009 146.879 128.808C146.932 128.52 146.924 128.224 146.854 127.939C146.784 127.654 146.654 127.388 146.473 127.158C145.926 126.536 145.006 126.48 144.185 126.372C143.363 126.264 142.419 125.956 142.186 125.161C142.018 124.591 142.275 123.894 141.91 123.426C141.74 123.235 141.52 123.094 141.275 123.02C140.678 122.749 140.006 122.69 139.37 122.851C138.278 123.207 137.624 124.488 136.489 124.647C136.318 124.68 136.14 124.661 135.98 124.591C135.55 124.375 135.513 123.754 135.205 123.403C134.687 122.856 133.701 123.211 133.071 122.804C132.689 122.485 132.442 122.032 132.38 121.537C132.097 120.62 132.033 119.65 132.193 118.704C132.562 117.119 133.981 116.029 134.883 114.669C135.728 113.406 136.204 111.807 137.47 110.97C138.735 110.133 140.365 110.32 141.798 110.746C142.457 110.981 143.136 111.159 143.825 111.279C144.978 111.419 146.137 111.106 147.295 111.068C148.936 111.015 150.549 111.508 151.88 112.471C152.18 112.667 152.435 112.925 152.627 113.228C152.82 113.658 152.934 114.119 152.964 114.589C153.1 115.472 153.406 116.32 153.865 117.086C154.22 117.689 154.673 118.232 154.995 118.853C155.355 119.463 155.466 120.189 155.303 120.878C155.191 121.229 154.976 121.547 154.892 121.907C154.705 122.739 155.252 123.539 155.625 124.305C155.989 125.007 156.161 125.793 156.125 126.582C156.105 126.976 156.004 127.361 155.828 127.714C155.652 128.066 155.405 128.378 155.102 128.63C154.468 129.071 153.712 129.302 152.94 129.29C152.004 129.318 151.071 129.177 150.185 128.874C149.858 128.728 149.501 128.665 149.144 128.691C148.644 128.794 148.709 129.098 148.495 129.467C148.21 129.963 147.108 130.061 146.879 129.421Z" fill="#3F3D56"/>
<path opacity="0.1" d="M141.616 184.571L147.122 180.26L155.779 171.718L152.922 171.587C152.586 171.89 152.372 172.306 152.319 172.756C152.277 173.798 149.984 172.826 148.784 173.424C147.584 174.023 141.747 181.513 140.724 181.462C139.702 181.411 138.889 180.943 138.46 181.668L138.432 181.714C138.261 181.911 138.032 182.047 137.778 182.103L141.616 184.571Z" fill="black"/>
<path d="M130.526 184.272L133.29 193.114L133.725 194.517L135.041 194.157L137.946 193.357L150.872 189.804C152.5 189.733 154.093 189.308 155.541 188.56C157.985 187.189 160.781 186.578 163.573 186.806C165.282 186.965 167.183 186.227 168.761 183.309C168.761 183.309 172.343 172.718 163.302 169.684C154.262 166.649 153.827 171.297 153.827 171.297L153.701 171.372C153.351 171.596 152.37 172.307 152.333 173.158C152.291 174.2 149.998 173.233 148.798 173.826C147.598 174.42 141.761 181.915 140.738 181.864C139.716 181.813 138.903 181.345 138.474 182.074L138.446 182.121C138.128 182.556 137.18 182.659 136.55 182.673C136.354 182.683 136.157 182.683 135.961 182.673L135.877 182.696L135.224 182.893L130.526 184.272Z" fill="#65617D"/>
<path opacity="0.1" d="M131.24 167.107L132.576 167.318L133.132 161.81C133.132 161.81 132.52 161.716 131.759 161.538C131.959 162.31 131.502 165.279 131.24 167.107Z" fill="black"/>
<path opacity="0.1" d="M166.123 141.363C166.123 141.363 170.087 140.208 169.106 151.486C168.426 158.369 165.503 164.837 160.79 169.894C160.79 169.894 152.342 173.607 148.546 173.008C144.75 172.41 141.981 172.283 141.981 172.283C140.784 171.679 139.476 171.33 138.137 171.259C136.008 171.175 131.53 169.857 131.441 169.422C131.352 168.987 132.553 162.717 132.039 162.249C132.039 162.249 138.011 162.492 138.609 162.923C139.207 163.353 140.061 163.049 140.701 162.923C141.341 162.796 143.302 161.094 147.183 162.591C147.183 162.591 148.504 162.717 149.018 162.375C149.436 162.18 149.913 162.15 150.353 162.291C150.685 162.181 151 162.023 151.287 161.824C151.413 161.655 152.441 161.824 152.441 161.824C152.502 161.851 152.568 161.865 152.635 161.864C152.702 161.864 152.768 161.849 152.829 161.82C152.889 161.792 152.943 161.751 152.987 161.7C153.03 161.649 153.062 161.589 153.08 161.524C153.215 161.176 153.419 160.858 153.678 160.589C153.678 160.589 154.827 154.099 157.003 151.663C157.176 151.511 157.31 151.319 157.391 151.102C157.473 150.886 157.5 150.653 157.47 150.424C157.292 149.732 161.005 139.993 166.123 141.363Z" fill="black"/>
<path d="M166.015 140.493C166.015 140.493 169.984 139.343 169.004 150.616C168.325 157.5 165.402 163.969 160.687 169.024C160.687 169.024 152.24 172.742 148.443 172.143C144.647 171.545 141.873 171.404 141.873 171.404C140.679 170.799 139.371 170.45 138.035 170.38C135.901 170.292 131.422 168.978 131.338 168.543C131.254 168.108 132.445 161.838 131.936 161.365C131.936 161.365 137.909 161.613 138.506 162.043C139.104 162.474 139.954 162.165 140.594 162.043C141.233 161.922 143.195 160.215 147.08 161.707C147.08 161.707 148.401 161.838 148.91 161.496C149.329 161.303 149.805 161.271 150.246 161.408C150.577 161.295 150.891 161.137 151.18 160.94C151.306 160.767 152.328 160.94 152.328 160.94C152.39 160.967 152.456 160.981 152.523 160.981C152.59 160.98 152.656 160.965 152.717 160.937C152.777 160.908 152.831 160.867 152.875 160.816C152.918 160.765 152.95 160.705 152.968 160.641C153.103 160.292 153.306 159.974 153.566 159.706C153.566 159.706 154.719 153.216 156.895 150.78C157.069 150.627 157.203 150.435 157.284 150.219C157.366 150.003 157.392 149.77 157.362 149.54C157.19 148.867 160.897 139.142 166.015 140.493Z" fill="#3F3D56"/>
<path opacity="0.1" d="M135.21 182.869L140.841 189.696L140.878 189.659C140.921 189.528 141.476 188.078 141.345 187.989C141.215 187.9 140.239 185.768 138.277 184.871C137.28 184.384 136.442 183.621 135.863 182.673L135.21 182.869Z" fill="black"/>
<path opacity="0.1" d="M135.284 194.685L135.901 195.036C135.901 195.036 137.33 193.89 138.754 192.735C140.178 191.58 141.556 190.449 141.556 190.397C141.556 190.346 142.153 188.817 142.023 188.733C141.892 188.649 141.663 188.097 141.121 187.41C137.302 186.339 139.72 188.995 140.057 189.116C140.057 189.116 135.41 188.045 135.154 193.119C135.131 193.644 135.175 194.17 135.284 194.685Z" fill="black"/>
<path d="M139.996 196.831L140.808 197.299L149.041 197.509C149.964 198.071 150.94 198.541 151.955 198.912C152.089 198.952 152.227 198.982 152.366 199.001C153.13 199.063 153.897 199.077 154.663 199.043C155.294 199.043 155.779 199.001 155.779 199.001C155.779 199.001 155.392 188.607 155.098 187.512C154.957 186.989 154.266 187.101 153.585 187.363C153.074 187.572 152.58 187.822 152.109 188.111C152.109 188.111 148.616 188.452 148.06 188.751C147.505 189.051 145.926 188.578 144.946 188.751C143.965 188.924 142.214 187.597 142.214 187.597C137.437 186.016 140.127 188.962 140.468 189.093C140.468 189.093 135.798 188.022 135.56 193.095C135.322 198.168 139.996 196.831 139.996 196.831Z" fill="#3F3D56"/>
<path d="M151.899 192.819C151.988 194.97 153.664 197.64 154.663 199.052C155.294 199.052 155.779 199.01 155.779 199.01C155.779 199.01 155.392 188.616 155.098 187.522C154.957 186.998 154.266 187.11 153.585 187.372C152.758 188.924 151.824 191.08 151.899 192.819Z" fill="#565387"/>
<path opacity="0.1" d="M151.899 192.819C151.988 194.97 153.664 197.64 154.663 199.052C155.294 199.052 155.779 199.01 155.779 199.01C155.779 199.01 155.392 188.616 155.098 187.522C154.957 186.998 154.266 187.11 153.585 187.372C152.758 188.924 151.824 191.08 151.899 192.819Z" fill="black"/>
<path opacity="0.05" d="M150.489 193.105C151.058 195.181 151.049 197.509 151.955 198.921C152.089 198.961 152.227 198.991 152.366 199.01C153.13 199.073 153.897 199.087 154.663 199.052C155.294 199.052 155.779 199.01 155.779 199.01C155.779 199.01 155.392 188.616 155.098 187.522C154.957 186.998 154.266 187.11 153.585 187.372C153.074 187.582 152.58 187.832 152.109 188.12C152.109 188.12 149.765 190.444 150.489 193.105Z" fill="black"/>
<path opacity="0.1" d="M122.088 172.031C122.088 172.031 126.178 173.359 129.643 178.081L122.088 172.031Z" fill="black"/>
<g opacity="0.1">
<path d="M155.317 120.775C155.317 120.808 155.317 120.836 155.294 120.869C155.254 120.991 155.206 121.109 155.149 121.224C155.194 121.07 155.25 120.92 155.317 120.775Z" fill="black"/>
<path d="M132.184 118.704C132.253 118.405 132.36 118.116 132.501 117.843C132.501 117.914 132.454 117.988 132.436 118.063C132.28 119.01 132.346 119.98 132.627 120.897C132.689 121.39 132.934 121.843 133.314 122.164C133.949 122.571 134.934 122.215 135.452 122.762C135.779 123.113 135.798 123.735 136.228 123.95C136.388 124.02 136.565 124.04 136.737 124.006C137.871 123.847 138.525 122.566 139.618 122.211C140.253 122.047 140.926 122.106 141.523 122.379C141.768 122.454 141.987 122.595 142.158 122.786C142.522 123.253 142.265 123.95 142.433 124.52C142.667 125.315 143.615 125.629 144.432 125.731C145.249 125.834 146.174 125.895 146.72 126.517C146.901 126.747 147.031 127.014 147.101 127.298C147.171 127.583 147.18 127.879 147.126 128.168C147.078 128.369 147.078 128.579 147.126 128.78C147.351 129.421 148.457 129.322 148.747 128.817C148.962 128.448 148.896 128.144 149.396 128.041C149.753 128.015 150.11 128.078 150.437 128.224C151.323 128.527 152.256 128.668 153.192 128.64C153.964 128.652 154.72 128.421 155.354 127.981C155.632 127.762 155.858 127.486 156.017 127.172C155.873 127.744 155.545 128.254 155.084 128.621C154.449 129.062 153.693 129.292 152.922 129.28C151.986 129.309 151.052 129.168 150.166 128.864C149.84 128.718 149.482 128.656 149.125 128.682C148.625 128.785 148.691 129.089 148.481 129.458C148.186 129.963 147.08 130.061 146.856 129.421C146.809 129.219 146.809 129.01 146.856 128.808C146.909 128.52 146.9 128.224 146.83 127.939C146.76 127.654 146.63 127.388 146.449 127.158C145.903 126.536 144.983 126.48 144.161 126.372C143.339 126.264 142.396 125.956 142.163 125.161C141.995 124.591 142.251 123.894 141.887 123.426C141.718 123.236 141.5 123.095 141.257 123.02C140.657 122.749 139.984 122.69 139.347 122.851C138.259 123.207 137.6 124.488 136.466 124.647C136.294 124.68 136.117 124.661 135.957 124.591C135.527 124.375 135.49 123.754 135.182 123.403C134.663 122.856 133.683 123.211 133.048 122.804C132.665 122.485 132.418 122.032 132.356 121.537C132.079 120.619 132.02 119.649 132.184 118.704Z" fill="black"/>
</g>
<path opacity="0.1" d="M155.98 152.893C155.196 153.95 154.304 154.927 153.613 156.04C152.862 157.137 152.497 158.453 152.576 159.78C153.29 159.046 153.622 158.027 154.07 157.106C154.836 155.544 155.975 154.221 156.942 152.79C157.124 152.514 158.301 150.92 157.708 150.854C157.213 150.784 156.246 152.533 155.98 152.893Z" fill="black"/>
<path d="M160.183 252.94C160.748 254.755 161.318 256.574 162.023 258.336C163.293 261.401 164.892 264.318 166.79 267.038C168.014 268.828 169.33 270.554 170.732 272.209C172.487 274.281 174.467 276.366 175.065 279.013C175.425 280.542 175.303 282.136 175.453 283.688C175.602 285.241 176.111 286.905 177.376 287.84C178.278 288.509 179.431 288.71 180.538 288.883C181.332 289.009 182.322 289.051 182.733 288.364C182.876 288.083 182.951 287.772 182.952 287.457L183.143 285.171C183.181 284.675 183.358 284.044 183.853 284.02C184.348 283.997 184.596 284.656 185.016 284.955C185.576 285.348 186.417 284.955 186.725 284.362C186.981 283.719 186.998 283.005 186.772 282.351C186.432 281.05 185.82 279.835 184.978 278.787C184.135 277.74 183.08 276.883 181.883 276.273C181.051 275.937 180.254 275.522 179.501 275.033C178.737 274.368 178.103 273.566 177.633 272.668C173.3 265.523 168.943 258.341 165.884 250.565C165.282 249.176 164.875 247.709 164.675 246.207C164.526 244.678 164.764 243.14 164.862 241.606C165.043 238.851 164.787 236.085 164.105 233.41C163.956 232.707 163.693 232.035 163.325 231.418C162.065 229.505 159.123 229.22 157.255 230.539C156.567 231.069 155.997 231.736 155.581 232.498C155.164 233.26 154.911 234.101 154.836 234.967C154.701 236.519 155.593 238.128 156.046 239.572C157.418 244.033 158.797 248.489 160.183 252.94Z" fill="#A1616A"/>
<path opacity="0.05" d="M160.183 252.94C160.748 254.755 161.318 256.574 162.023 258.336C163.293 261.401 164.892 264.318 166.79 267.038C168.014 268.828 169.33 270.554 170.732 272.209C172.487 274.281 174.467 276.366 175.065 279.013C175.425 280.542 175.303 282.136 175.453 283.688C175.602 285.241 176.111 286.905 177.376 287.84C178.278 288.509 179.431 288.71 180.538 288.883C181.332 289.009 182.322 289.051 182.733 288.364C182.876 288.083 182.951 287.772 182.952 287.457L183.143 285.171C183.181 284.675 183.358 284.044 183.853 284.02C184.348 283.997 184.596 284.656 185.016 284.955C185.576 285.348 186.417 284.955 186.725 284.362C186.981 283.719 186.998 283.005 186.772 282.351C186.432 281.05 185.82 279.835 184.978 278.787C184.135 277.74 183.08 276.883 181.883 276.273C181.051 275.937 180.254 275.522 179.501 275.033C178.737 274.368 178.103 273.566 177.633 272.668C173.3 265.523 168.943 258.341 165.884 250.565C165.282 249.176 164.875 247.709 164.675 246.207C164.526 244.678 164.764 243.14 164.862 241.606C165.043 238.851 164.787 236.085 164.105 233.41C163.956 232.707 163.693 232.035 163.325 231.418C162.065 229.505 159.123 229.22 157.255 230.539C156.567 231.069 155.997 231.736 155.581 232.498C155.164 233.26 154.911 234.101 154.836 234.967C154.701 236.519 155.593 238.128 156.046 239.572C157.418 244.033 158.797 248.489 160.183 252.94Z" fill="black"/>
<path d="M132.959 329.333C133.804 329.627 134.702 329.736 135.592 329.651C135.658 328.922 136.638 328.758 137.367 328.795C137.719 328.784 138.069 328.864 138.38 329.029C138.562 329.146 138.702 329.314 138.88 329.436C139.196 329.61 139.551 329.701 139.912 329.703L143.704 330.02C145.394 330.165 147.154 330.296 148.737 329.693C149.053 329.593 149.333 329.405 149.545 329.151C149.975 328.534 149.545 327.65 148.952 327.201C148.359 326.752 147.593 326.551 146.996 326.093C145.679 325.088 145.497 323.208 144.801 321.702C144.306 320.753 143.696 319.869 142.985 319.07C142.469 318.384 141.868 317.766 141.196 317.232C139.674 316.133 137.927 316.157 136.139 315.998C134.878 315.886 133.692 315.811 132.786 316.933C131.665 318.336 132.114 321.141 132.184 322.778C132.271 324.98 132.53 327.172 132.959 329.333Z" fill="#514E7F"/>
<path opacity="0.05" d="M132.959 329.333C133.804 329.627 134.702 329.736 135.592 329.651C135.658 328.922 136.638 328.758 137.367 328.795C137.719 328.784 138.069 328.864 138.38 329.029C138.562 329.146 138.702 329.314 138.88 329.436C139.196 329.61 139.551 329.701 139.912 329.703L143.704 330.02C145.394 330.165 147.154 330.296 148.737 329.693C149.053 329.593 149.333 329.405 149.545 329.151C149.975 328.534 149.545 327.65 148.952 327.201C148.359 326.752 147.593 326.551 146.996 326.093C145.679 325.088 145.497 323.208 144.801 321.702C144.306 320.753 143.696 319.869 142.985 319.07C142.469 318.384 141.868 317.766 141.196 317.232C139.674 316.133 137.927 316.157 136.139 315.998C134.878 315.886 133.692 315.811 132.786 316.933C131.665 318.336 132.114 321.141 132.184 322.778C132.271 324.98 132.53 327.172 132.959 329.333Z" fill="black"/>
<path d="M134.49 255.479C133.332 255.853 132.828 257.298 133.043 258.5C133.258 259.702 133.977 260.74 134.57 261.806C136.26 264.831 136.989 268.291 138.408 271.447C139.468 273.785 140.902 275.983 141.948 278.349C142.994 280.715 143.643 283.384 143.008 285.895C142.7 287.116 142.102 288.233 141.705 289.435C141.312 290.737 141.055 292.077 140.939 293.433C140.425 298.037 140.333 302.679 140.664 307.301C140.667 307.864 140.784 308.421 141.009 308.937C141.247 309.405 141.658 309.873 141.476 310.34C141.397 310.532 141.224 310.672 141.14 310.859C140.897 311.383 141.383 311.939 141.826 312.313C141.747 312.454 141.641 312.577 141.513 312.676C141.386 312.775 141.24 312.847 141.084 312.889C141.402 313.091 141.647 313.391 141.781 313.744C141.916 314.097 141.933 314.484 141.831 314.848C141.439 314.908 141.415 315.512 141.663 315.83C141.91 316.148 142.303 316.344 142.48 316.704C142.585 316.997 142.573 317.319 142.448 317.604C142.323 317.89 142.094 318.116 141.808 318.238C141.224 318.462 140.588 318.511 139.977 318.378C138.942 318.233 137.919 318.008 136.919 317.705C136.396 317.602 135.927 317.313 135.6 316.892C135.272 316.472 135.107 315.946 135.135 315.413C134.904 313.51 134.833 311.591 134.925 309.676C135.088 300.399 134.925 291.113 134.523 281.841C134.36 278.101 133.239 274.477 131.796 271.036C130.998 269.277 130.112 267.56 129.139 265.892C127.056 262.077 125.217 257.85 125.693 253.525C125.744 253.057 125.912 252.501 126.375 252.426C126.555 252.407 126.738 252.437 126.902 252.515C127.862 252.964 128.79 253.476 129.681 254.049C131.145 254.908 132.795 255.399 134.49 255.479Z" fill="#464353"/>
<path opacity="0.05" d="M134.49 255.479C133.332 255.853 132.828 257.298 133.043 258.5C133.258 259.702 133.977 260.74 134.57 261.806C136.26 264.831 136.989 268.291 138.408 271.447C139.468 273.785 140.902 275.983 141.948 278.349C142.994 280.715 143.643 283.384 143.008 285.895C142.7 287.116 142.102 288.233 141.705 289.435C141.312 290.737 141.055 292.077 140.939 293.433C140.425 298.037 140.333 302.679 140.664 307.301C140.667 307.864 140.784 308.421 141.009 308.937C141.247 309.405 141.658 309.873 141.476 310.34C141.397 310.532 141.224 310.672 141.14 310.859C140.897 311.383 141.383 311.939 141.826 312.313C141.747 312.454 141.641 312.577 141.513 312.676C141.386 312.775 141.24 312.847 141.084 312.889C141.402 313.091 141.647 313.391 141.781 313.744C141.916 314.097 141.933 314.484 141.831 314.848C141.439 314.908 141.415 315.512 141.663 315.83C141.91 316.148 142.303 316.344 142.48 316.704C142.585 316.997 142.573 317.319 142.448 317.604C142.323 317.89 142.094 318.116 141.808 318.238C141.224 318.462 140.588 318.511 139.977 318.378C138.942 318.233 137.919 318.008 136.919 317.705C136.396 317.602 135.927 317.313 135.6 316.892C135.272 316.472 135.107 315.946 135.135 315.413C134.904 313.51 134.833 311.591 134.925 309.676C135.088 300.399 134.925 291.113 134.523 281.841C134.36 278.101 133.239 274.477 131.796 271.036C130.998 269.277 130.112 267.56 129.139 265.892C127.056 262.077 125.217 257.85 125.693 253.525C125.744 253.057 125.912 252.501 126.375 252.426C126.555 252.407 126.738 252.437 126.902 252.515C127.862 252.964 128.79 253.476 129.681 254.049C131.145 254.908 132.795 255.399 134.49 255.479Z" fill="black"/>
<path d="M118.833 244.201C118.229 243.813 117.533 243.594 116.816 243.566C115.985 243.608 115.275 244.155 114.626 244.678C113.857 245.269 113.127 245.91 112.44 246.595C111.019 248.112 110.029 249.982 109.572 252.011C109.116 254.04 109.21 256.155 109.844 258.135C110.53 260.197 111.787 262.016 113.029 263.798L115.55 267.426C119.398 272.957 123.246 278.489 127.276 283.889C127.277 284.022 127.32 284.151 127.399 284.258C127.477 284.365 127.588 284.444 127.715 284.483C127.86 284.521 128.042 284.516 128.13 284.637C128.171 284.713 128.189 284.799 128.182 284.885C128.173 285.285 128.097 285.68 127.958 286.054C127.892 286.178 127.875 286.321 127.911 286.456C128.042 286.76 128.593 286.587 128.77 286.873C128.887 287.06 128.742 287.303 128.588 287.462C128.434 287.621 128.242 287.798 128.27 288.018C128.298 288.238 128.681 288.486 128.667 288.757C128.667 288.916 128.527 289.037 128.429 289.164C128.292 289.365 128.229 289.608 128.252 289.85C128.275 290.093 128.383 290.32 128.555 290.492C128.821 293.129 127.388 295.635 127.103 298.263C126.636 302.415 128.527 306.469 128.756 310.635C128.742 311.104 128.832 311.57 129.018 312C129.405 312.72 130.418 313.155 130.367 313.973C130.294 314.31 130.199 314.641 130.082 314.965C130.003 315.432 130.227 315.9 130.236 316.367C130.246 316.835 129.83 317.41 129.391 317.223C129.721 318.326 130.015 319.439 130.274 320.561L139.099 321.291C139.195 320.497 139.168 319.692 139.02 318.906C138.838 318.051 138.455 317.256 138.254 316.409C138.124 315.993 138.087 315.552 138.147 315.12C138.206 314.687 138.361 314.273 138.6 313.908C138.37 313.911 138.146 313.832 137.968 313.686C137.791 313.539 137.67 313.335 137.628 313.108C137.555 312.652 137.562 312.187 137.652 311.734C137.885 309.428 136.919 307.156 136.947 304.841C136.975 303.018 137.614 301.265 137.937 299.474C138.628 295.64 137.909 291.483 139.613 287.981C140.645 285.872 142.074 283.534 140.916 281.491C140.346 280.481 139.338 279.789 138.679 278.835C138.142 277.933 137.74 276.958 137.484 275.941C136.125 271.732 133.925 267.823 131.997 263.821C131.462 262.818 131.064 261.747 130.815 260.637C130.679 259.663 130.629 258.679 130.666 257.696C130.666 255.931 130.558 254.168 130.344 252.417C130.3 251.649 130.081 250.902 129.704 250.233C129.323 249.727 128.847 249.3 128.303 248.975C125.408 246.988 121.962 245.852 118.833 244.201Z" fill="#464353"/>
<path d="M129.41 332.573C130.257 332.864 131.157 332.97 132.048 332.887C132.114 332.157 133.09 331.994 133.818 332.031C134.17 332.019 134.52 332.1 134.831 332.265C135.013 332.382 135.154 332.555 135.336 332.672C135.651 332.847 136.007 332.939 136.368 332.938L140.155 333.256C141.85 333.401 143.606 333.537 145.193 332.929C145.508 332.83 145.787 332.642 145.996 332.386C146.426 331.769 145.996 330.89 145.403 330.441C144.81 329.992 144.045 329.787 143.451 329.329C142.13 328.323 141.953 326.448 141.252 324.943C140.762 323.99 140.153 323.104 139.44 322.305C138.923 321.621 138.32 321.005 137.647 320.473C136.129 319.369 134.378 319.392 132.595 319.234C131.329 319.121 130.143 319.051 129.242 320.169C128.121 321.571 128.569 324.377 128.635 326.018C128.722 328.22 128.982 330.412 129.41 332.573Z" fill="#514E7F"/>
<path d="M168.527 228.898C173.355 228.898 177.269 224.979 177.269 220.145C177.269 215.31 173.355 211.392 168.527 211.392C163.7 211.392 159.786 215.31 159.786 220.145C159.786 224.979 163.7 228.898 168.527 228.898Z" fill="#A1616A"/>
<path d="M160.281 222.744C159.029 223.824 157.232 223.904 155.588 224.072C152.073 224.434 148.652 225.425 145.487 226.999C145.049 227.188 144.653 227.461 144.32 227.803C144.036 228.174 143.834 228.602 143.727 229.057C143.426 230.041 143.314 231.074 143.395 232.101C143.51 233.096 143.796 234.064 144.241 234.962C145.454 237.477 147.326 239.615 149.657 241.148C150.068 241.455 150.534 241.678 151.03 241.807C152.179 242.046 153.29 241.382 154.425 241.083C155.457 240.813 156.545 240.847 157.558 241.181C158.492 241.499 159.515 242.079 160.44 241.691C161.031 241.359 161.491 240.834 161.742 240.204C162.635 238.514 163.432 236.775 164.129 234.995C164.379 234.3 164.667 233.619 164.993 232.956C166.006 231.025 167.757 229.534 168.63 227.528C168.719 227.375 168.772 227.204 168.787 227.027C168.801 226.851 168.777 226.674 168.714 226.508C168.552 226.285 168.328 226.114 168.07 226.017C166.779 225.277 165.602 224.353 164.577 223.273C164.003 222.721 162.947 221.229 162.121 221.098C161.191 220.939 160.911 222.202 160.281 222.744Z" fill="#A1616A"/>
<path d="M160.486 240.531C159.473 240.999 158.278 240.797 157.18 240.568C154.35 239.975 151.488 239.376 148.868 238.151C148.05 237.837 147.341 237.291 146.828 236.58C146.509 235.972 146.315 235.305 146.258 234.621L145.791 231.348C145.623 230.212 145.912 229.159 145.94 228.009C145.958 227.882 145.95 227.752 145.918 227.628C145.885 227.503 145.827 227.386 145.749 227.285C145.589 227.15 145.383 227.084 145.175 227.102C143.862 227.126 143.069 228.505 142.149 229.44C141.617 229.98 140.982 230.406 140.281 230.693C139.44 231.039 138.413 231.282 138.063 232.124C137.923 232.475 137.941 232.872 137.792 233.223C137.203 234.625 134.696 234.158 134.056 235.561C133.874 235.953 133.888 236.444 133.589 236.753C133.29 237.062 132.73 237.057 132.268 237.132C130.442 237.431 129.559 239.54 128 240.536C126.687 241.377 124.997 241.359 123.582 242.013C122.798 242.378 122.102 242.948 121.271 243.187C120.439 243.425 119.501 243.299 118.609 243.322C118.514 243.313 118.418 243.324 118.327 243.354C118.236 243.384 118.153 243.432 118.081 243.495C118.026 243.58 117.989 243.676 117.974 243.776C117.959 243.876 117.965 243.978 117.993 244.075C118.425 246.84 119.569 249.444 121.312 251.632C123.056 253.819 125.338 255.514 127.934 256.55C128.236 256.646 128.522 256.785 128.784 256.962C129.578 257.555 129.718 258.832 130.619 259.253C130.945 259.367 131.295 259.39 131.632 259.317C131.969 259.244 132.28 259.08 132.529 258.841C133.026 258.362 133.494 257.853 133.93 257.317C134.753 256.456 135.833 255.887 137.007 255.694C138.091 255.521 139.3 255.648 140.178 254.979C140.537 254.649 140.871 254.293 141.177 253.913C141.828 253.305 142.6 252.843 143.442 252.557C145.744 251.646 148.176 251.111 150.647 250.972C152.95 250.846 155.317 251.056 157.493 250.308C158.058 250.133 158.579 249.838 159.02 249.443C159.488 248.936 159.836 248.331 160.038 247.671C160.823 245.374 160.978 242.908 160.486 240.531Z" fill="#6246EA"/>
<path d="M149.218 227.63C149.863 227.57 150.512 227.63 151.161 227.63C151.922 227.63 152.674 227.443 153.435 227.439C154.641 227.458 155.808 227.863 156.767 228.594C157.727 229.325 158.428 230.344 158.768 231.502C158.832 231.687 158.843 231.886 158.801 232.077C158.775 232.171 158.717 232.254 158.637 232.309C158.556 232.363 158.459 232.388 158.362 232.376C158.109 231.685 157.778 231.024 157.376 230.408C156.653 229.419 155.621 228.698 154.444 228.36C153.27 228.027 152.034 227.982 150.839 228.229C150.339 228.323 149.854 228.453 149.368 228.589L147.033 229.234C146.603 229.351 146.169 229.468 145.754 229.622C145.431 229.744 144.88 230.188 144.563 230.207C144.133 230.207 144.479 229.833 144.67 229.58C145.052 229.06 145.585 228.671 146.197 228.467C147.168 228.07 148.182 227.789 149.218 227.63Z" fill="#6246EA"/>
<path d="M155.112 253.922C155.677 255.737 156.242 257.555 156.951 259.318C158.22 262.384 159.819 265.301 161.719 268.02C162.943 269.81 164.259 271.536 165.66 273.191C167.411 275.263 169.368 277.348 169.994 279.99C170.353 281.523 170.232 283.118 170.381 284.666C170.531 286.213 171.04 287.882 172.301 288.818C173.206 289.482 174.36 289.683 175.467 289.86C176.256 289.987 177.246 290.029 177.661 289.341C177.802 289.06 177.877 288.749 177.881 288.434L178.068 286.148C178.11 285.652 178.287 285.021 178.777 284.998C179.268 284.974 179.524 285.633 179.945 285.933C180.505 286.325 181.346 285.933 181.654 285.339C181.908 284.696 181.924 283.983 181.701 283.328C181.359 282.028 180.747 280.814 179.904 279.766C179.062 278.719 178.008 277.861 176.811 277.25C175.979 276.913 175.18 276.498 174.425 276.011C173.66 275.345 173.026 274.541 172.557 273.64C168.219 266.5 163.862 259.318 160.809 251.538C160.206 250.149 159.798 248.685 159.594 247.185C159.45 245.656 159.683 244.117 159.786 242.584C159.967 239.829 159.712 237.062 159.029 234.387C158.881 233.684 158.615 233.011 158.245 232.395C156.989 230.478 154.042 230.197 152.174 231.516C151.486 232.046 150.915 232.713 150.498 233.475C150.081 234.237 149.826 235.078 149.751 235.944C149.615 237.496 150.512 239.105 150.96 240.55C152.339 245.013 153.723 249.471 155.112 253.922Z" fill="#A1616A"/>
<path d="M181.243 213.954C181.313 213.224 180.659 212.551 179.917 212.084C179.135 211.682 178.384 211.223 177.671 210.709C177.008 210.134 176.643 209.386 175.98 208.811C175.226 208.236 174.371 207.809 173.459 207.553C171.518 206.872 169.481 206.507 167.425 206.473C165.347 206.473 163.223 206.94 161.658 208.002C161.272 208.245 160.939 208.563 160.678 208.937C160.431 209.386 160.273 209.878 160.211 210.386C159.838 211.955 159.334 213.49 158.703 214.973C158.053 216.624 157.362 218.335 155.835 219.612C154.201 220.972 151.703 221.758 150.624 223.404C150.505 223.55 150.421 223.722 150.38 223.906C150.338 224.09 150.341 224.282 150.386 224.465C150.54 224.881 151.035 225.166 151.493 225.428C154.145 226.953 156.433 228.93 157.61 231.292C158.787 233.653 158.754 236.435 157.077 238.609C156.461 239.413 155.611 240.367 156.214 241.176C157.148 242.406 160.272 241.7 161 243C161.229 243.416 161.093 243.888 161.093 244.342C161.093 245.707 162.406 246.918 163.998 247.549C165.59 248.18 167.435 248.33 169.228 248.41C169.704 247.338 169.751 246.125 169.359 245.02C169.239 244.781 169.192 244.513 169.223 244.248C169.357 243.954 169.564 243.699 169.826 243.509C171.74 241.695 171.334 239.03 170.185 236.875C169.036 234.719 167.243 232.75 166.576 230.483C166.244 229.356 166.244 228.089 167.136 227.154C167.648 226.704 168.2 226.302 168.784 225.952C169.829 225.242 170.633 224.231 171.091 223.053C171.628 221.561 171.558 219.78 173.118 218.775C174.617 217.839 176.723 218.111 178.38 217.47C179.655 216.965 181.14 215.025 181.243 213.954Z" fill="#464353"/>
</g>
<defs>
<linearGradient id="paint0_linear_485_210" x1="142.802" y1="198.748" x2="142.802" y2="109.488" gradientUnits="userSpaceOnUse">
<stop stop-color="#808080" stop-opacity="0.25"/>
<stop offset="0.54" stop-color="#808080" stop-opacity="0.12"/>
<stop offset="1" stop-color="#808080" stop-opacity="0.1"/>
</linearGradient>
<clipPath id="clip0_485_210">
<rect width="550" height="339.068" fill="white"/>
</clipPath>
</defs>
</svg>
