<svg width="501" height="550" viewBox="0 0 501 550" fill="none" xmlns="http://www.w3.org/2000/svg">
<g clip-path="url(#clip0_511_733)">
<path d="M347.849 111.583C313.124 106.041 273.579 103.084 232.396 103.084C194.706 103.084 158.394 105.557 125.896 110.22C125.904 109.721 125.911 109.222 125.933 108.723C126.795 79.7548 138.953 52.273 159.809 32.1511C180.666 12.0291 208.566 0.863449 237.546 1.0405C266.526 1.21754 294.287 12.7233 314.896 33.0985C335.505 53.4738 347.327 81.1021 347.834 110.078C347.842 110.585 347.849 111.084 347.849 111.583Z" fill="#6246EA"/>
<g opacity="0.1">
<path d="M251.428 0.999101C236.014 -1.08283 220.335 0.097149 205.407 4.46255C190.479 8.82794 176.634 16.2813 164.771 26.3397C152.908 36.3981 143.29 48.8369 136.542 62.85C129.794 76.8632 126.065 92.138 125.598 107.684C125.575 108.183 125.568 108.682 125.561 109.182C135.215 107.796 145.214 106.609 155.478 105.618C156.733 79.7183 167.016 55.0755 184.543 35.9655C202.069 16.8556 225.733 4.48453 251.428 0.999101Z" fill="white"/>
</g>
<path d="M396.4 120.387C380.415 116.054 364.201 112.612 347.835 110.078C321.009 105.921 293.965 103.322 266.839 102.295C255.539 101.833 244.031 101.594 232.396 101.594C223.175 101.594 214.028 101.743 205.008 102.041C178.547 102.823 152.15 105.054 125.933 108.723C106.527 111.395 87.3082 115.291 68.3929 120.387C24.2897 132.581 0 148.923 0 166.397C0 183.872 24.2898 200.214 68.3929 212.407C99.409 220.988 137.65 226.835 179.318 229.517C196.516 230.634 214.296 231.2 232.396 231.2C250.556 231.2 268.395 230.626 285.646 229.509C323.567 227.059 358.65 221.986 388.012 214.612C388.169 214.567 388.318 214.53 388.474 214.493C390.456 214.001 392.407 213.487 394.336 212.973C395.029 212.78 395.714 212.593 396.4 212.407C396.438 212.391 396.478 212.379 396.519 212.37C397.174 212.191 397.822 212.005 398.47 211.826C399.766 211.454 401.047 211.089 402.306 210.709C402.366 210.694 402.418 210.679 402.47 210.664C403.565 210.337 404.638 210.009 405.703 209.681C406.574 209.405 407.438 209.137 408.295 208.862C408.921 208.661 409.539 208.459 410.15 208.258C410.597 208.109 411.036 207.968 411.468 207.819C412.057 207.625 412.645 207.424 413.226 207.223C413.472 207.141 413.718 207.059 413.956 206.97C414.514 206.784 415.058 206.59 415.602 206.396C416.19 206.188 416.779 205.972 417.36 205.763C417.844 205.592 418.328 205.413 418.805 205.234C419.207 205.078 419.602 204.929 420.004 204.78C421.099 204.37 422.172 203.946 423.229 203.528C423.758 203.312 424.287 203.104 424.808 202.888C425.322 202.679 425.844 202.463 426.35 202.247C427.184 201.897 428.004 201.547 428.808 201.197C429.196 201.018 429.591 200.847 429.97 200.683C430.261 200.549 430.544 200.422 430.834 200.288C431.043 200.199 431.252 200.102 431.453 200.005C432.205 199.663 432.95 199.313 433.68 198.963C436.481 197.622 439.095 196.251 441.523 194.851C456.755 186.129 464.793 176.453 464.793 166.397C464.792 148.923 440.503 132.581 396.4 120.387ZM395.997 210.977C364.944 219.565 326.599 225.412 284.819 228.072C267.829 229.152 250.266 229.71 232.396 229.71C214.587 229.71 197.082 229.159 180.144 228.079C138.298 225.427 99.8931 219.58 68.7952 210.977C25.3922 198.97 1.48972 183.142 1.48972 166.397C1.49214 164.918 1.67734 163.444 2.04109 162.01C5.83958 146.904 29.2059 132.767 68.7952 121.817C87.5675 116.761 106.639 112.887 125.896 110.22C152.27 106.53 178.827 104.292 205.447 103.516C214.326 103.226 223.309 103.082 232.396 103.084C243.875 103.084 255.226 103.315 266.384 103.762C293.668 104.781 320.87 107.392 347.85 111.583C364.075 114.106 380.149 117.522 395.997 121.817C435.579 132.767 458.938 146.897 462.744 161.995C463.114 163.433 463.302 164.912 463.303 166.397C463.303 183.142 439.4 198.97 395.997 210.977Z" fill="#3F3D56"/>
<path d="M464.303 167.421C464.303 177.372 456.102 186.787 441.458 195.197C439.022 196.597 436.4 197.967 433.614 199.308C432.884 199.658 432.14 200.008 431.387 200.351C431.186 200.448 430.978 200.545 430.769 200.634C430.479 200.768 430.196 200.895 429.905 201.029C429.525 201.193 429.13 201.364 428.743 201.543C427.939 201.893 427.119 202.243 426.285 202.593C425.779 202.809 425.257 203.025 424.743 203.234C424.222 203.45 423.693 203.658 423.164 203.874C422.107 204.291 421.034 204.716 419.939 205.125C419.537 205.274 419.142 205.423 418.739 205.58C418.263 205.759 417.779 205.937 417.294 206.109C416.714 206.317 416.125 206.533 415.537 206.742C414.993 206.936 414.449 207.129 413.891 207.315C413.652 207.405 413.406 207.487 413.161 207.569C412.58 207.77 411.991 207.971 411.403 208.165C410.971 208.313 410.531 208.455 410.084 208.604C409.473 208.805 408.855 209.006 408.23 209.207C407.373 209.483 406.509 209.751 405.637 210.027C404.573 210.354 403.5 210.682 402.405 211.01C402.353 211.025 402.301 211.04 402.241 211.055C400.982 211.434 399.701 211.799 398.405 212.172C397.757 212.351 397.109 212.537 396.453 212.716C396.413 212.725 396.373 212.737 396.334 212.753C395.649 212.939 394.964 213.125 394.271 213.319C392.349 213.825 390.39 214.339 388.409 214.838C388.253 214.876 388.103 214.913 387.947 214.958C359.382 222.093 324.336 227.293 285.551 229.803C268.561 230.898 250.848 231.479 232.651 231.479C214.291 231.479 196.429 230.89 179.304 229.773C77.0797 223.106 1 197.722 1 167.421C1.00805 165.577 1.28909 163.745 1.83397 161.983C1.8787 162.11 1.92343 162.229 1.97581 162.356C12.6046 190.273 88.0369 212.835 185.911 218.339C200.905 219.188 216.436 219.628 232.331 219.628C248.293 219.628 263.883 219.181 278.937 218.332C376.729 212.805 452.087 190.236 462.679 162.341C462.858 161.894 463.014 161.447 463.148 161C463.903 163.057 464.294 165.23 464.303 167.421Z" fill="#6246EA"/>
<path d="M68.281 159.057C55.8845 159.057 42.7095 156.39 42.7095 151.447C42.7095 146.504 55.8846 143.837 68.281 143.837C80.6775 143.837 93.8526 146.504 93.8526 151.447C93.8526 156.39 80.6775 159.057 68.281 159.057ZM68.281 145.327C54.0892 145.327 44.1992 148.553 44.1992 151.447C44.1992 154.342 54.0892 157.568 68.281 157.568C82.4728 157.568 92.3629 154.342 92.3629 151.447C92.3629 148.553 82.4728 145.327 68.281 145.327Z" fill="#3F3D56"/>
<path d="M121.166 194.066C108.769 194.066 95.5942 191.399 95.5942 186.456C95.5942 181.513 108.769 178.846 121.166 178.846C133.562 178.846 146.737 181.513 146.737 186.456C146.737 191.399 133.562 194.066 121.166 194.066ZM121.166 180.335C106.974 180.335 97.084 183.561 97.084 186.456C97.084 189.35 106.974 192.576 121.166 192.576C135.357 192.576 145.248 189.35 145.248 186.456C145.248 183.561 135.357 180.335 121.166 180.335Z" fill="#3F3D56"/>
<path d="M396.019 159.057C383.623 159.057 370.448 156.39 370.448 151.447C370.448 146.504 383.623 143.837 396.019 143.837C408.416 143.837 421.591 146.504 421.591 151.447C421.591 156.39 408.416 159.057 396.019 159.057ZM396.019 145.327C381.827 145.327 371.937 148.553 371.937 151.447C371.937 154.342 381.827 157.568 396.019 157.568C410.211 157.568 420.101 154.342 420.101 151.447C420.101 148.553 410.211 145.327 396.019 145.327Z" fill="#3F3D56"/>
<path d="M343.134 194.066C330.738 194.066 317.562 191.399 317.562 186.456C317.562 181.513 330.738 178.846 343.134 178.846C355.531 178.846 368.706 181.513 368.706 186.456C368.706 191.399 355.531 194.066 343.134 194.066ZM343.134 180.335C328.942 180.335 319.052 183.561 319.052 186.456C319.052 189.35 328.942 192.576 343.134 192.576C357.326 192.576 367.216 189.35 367.216 186.456C367.216 183.561 357.326 180.335 343.134 180.335Z" fill="#3F3D56"/>
<path d="M232.15 210.453C219.754 210.453 206.579 207.786 206.579 202.843C206.579 197.9 219.754 195.233 232.15 195.233C244.547 195.233 257.722 197.9 257.722 202.843C257.722 207.786 244.547 210.453 232.15 210.453ZM232.15 196.722C217.958 196.722 208.068 199.948 208.068 202.843C208.068 205.737 217.958 208.963 232.15 208.963C246.342 208.963 256.232 205.737 256.232 202.843C256.232 199.948 246.342 196.722 232.15 196.722Z" fill="#3F3D56"/>
<path d="M251.001 367.005C268.284 367.005 282.295 352.994 282.295 335.711C282.295 318.429 268.284 304.418 251.001 304.418C233.718 304.418 219.708 318.429 219.708 335.711C219.708 352.994 233.718 367.005 251.001 367.005Z" fill="#2F2E41"/>
<path d="M239.102 356.271L223.872 363.898L228.128 372.399L243.359 364.772L239.102 356.271Z" fill="#2F2E41"/>
<path d="M230.136 371.536C231.039 370.166 228.81 367.103 225.157 364.695C221.504 362.286 217.811 361.444 216.908 362.814C216.005 364.184 218.234 367.247 221.887 369.656C225.539 372.064 229.233 372.906 230.136 371.536Z" fill="#2F2E41"/>
<path d="M262.901 356.271L258.644 364.772L273.874 372.399L278.131 363.898L262.901 356.271Z" fill="#2F2E41"/>
<path d="M280.116 369.655C283.769 367.247 285.998 364.184 285.094 362.814C284.191 361.444 280.498 362.286 276.845 364.695C273.192 367.103 270.963 370.166 271.866 371.536C272.77 372.906 276.463 372.064 280.116 369.655Z" fill="#2F2E41"/>
<path d="M248.81 338.752C254.717 338.752 259.506 333.964 259.506 328.057C259.506 322.15 254.717 317.362 248.81 317.362C242.904 317.362 238.115 322.15 238.115 328.057C238.115 333.964 242.904 338.752 248.81 338.752Z" fill="white"/>
<path d="M251.412 326.007C252.798 324.62 252.79 322.364 251.394 320.968C249.998 319.572 247.742 319.564 246.356 320.95C244.969 322.337 244.977 324.593 246.373 325.989C247.77 327.385 250.025 327.393 251.412 326.007Z" fill="#3F3D56"/>
<path d="M275.687 301.668C276.158 290.082 266.173 280.27 253.386 279.75C240.598 279.231 229.85 288.201 229.38 299.787C228.909 311.372 237.798 314.004 250.586 314.524C263.373 315.043 275.217 313.253 275.687 301.668Z" fill="#6246EA"/>
<path d="M293.725 352.098C295.784 350.331 292.889 343.583 287.261 337.026C281.632 330.469 275.4 326.587 273.342 328.354C271.283 330.121 274.178 336.869 279.807 343.425C285.435 349.982 291.667 353.865 293.725 352.098Z" fill="#2F2E41"/>
<path d="M222.283 343.425C227.912 336.868 230.807 330.121 228.748 328.354C226.69 326.587 220.458 330.469 214.829 337.026C209.201 343.583 206.306 350.331 208.365 352.098C210.423 353.865 216.655 349.982 222.283 343.425Z" fill="#2F2E41"/>
<path d="M259.596 348.044C259.935 349.904 259.52 351.823 258.444 353.378C257.368 354.933 255.719 355.997 253.858 356.336C251.998 356.674 250.079 356.26 248.524 355.184C246.969 354.108 245.905 352.458 245.566 350.598L245.564 350.584C244.862 346.709 247.858 345.338 251.733 344.636C255.608 343.935 258.895 344.169 259.596 348.044Z" fill="white"/>
<path d="M198.133 368.999C197.738 368.999 197.359 368.842 197.079 368.563C196.8 368.283 196.643 367.904 196.643 367.509V279.616C196.643 279.221 196.8 278.842 197.079 278.562C197.359 278.283 197.738 278.126 198.133 278.126C198.528 278.126 198.907 278.283 199.186 278.562C199.466 278.842 199.623 279.221 199.623 279.616V367.509C199.622 367.904 199.466 368.283 199.186 368.563C198.907 368.842 198.528 368.999 198.133 368.999Z" fill="#CCCCCC"/>
<path d="M175.787 447.954C175.392 447.954 175.013 447.797 174.734 447.518C174.454 447.239 174.297 446.86 174.297 446.465V382.407C174.297 382.011 174.454 381.633 174.734 381.353C175.013 381.074 175.392 380.917 175.787 380.917C176.182 380.917 176.561 381.074 176.84 381.353C177.12 381.633 177.277 382.011 177.277 382.407V446.465C177.277 446.86 177.12 447.239 176.84 447.518C176.561 447.797 176.182 447.954 175.787 447.954Z" fill="#CCCCCC"/>
<path d="M233.141 395.069C232.746 395.069 232.367 394.912 232.088 394.633C231.808 394.353 231.651 393.975 231.651 393.579V305.686C231.651 305.291 231.808 304.912 232.088 304.633C232.367 304.353 232.746 304.196 233.141 304.196C233.536 304.196 233.915 304.353 234.194 304.633C234.474 304.912 234.631 305.291 234.631 305.686V393.579C234.631 393.975 234.474 394.353 234.194 394.633C233.915 394.912 233.536 395.069 233.141 395.069Z" fill="#CCCCCC"/>
<path d="M211.54 458.382C211.145 458.382 210.766 458.225 210.487 457.946C210.207 457.667 210.05 457.288 210.05 456.893V421.139C210.05 420.744 210.207 420.365 210.487 420.086C210.766 419.806 211.145 419.65 211.54 419.65C211.935 419.65 212.314 419.806 212.593 420.086C212.873 420.365 213.03 420.744 213.03 421.139V456.893C213.03 457.288 212.873 457.667 212.593 457.946C212.314 458.225 211.935 458.382 211.54 458.382Z" fill="#CCCCCC"/>
<path d="M242.08 275.147C241.684 275.147 241.306 274.99 241.026 274.71C240.747 274.431 240.59 274.052 240.59 273.657V237.904C240.59 237.509 240.747 237.13 241.026 236.85C241.306 236.571 241.684 236.414 242.08 236.414C242.475 236.414 242.854 236.571 243.133 236.85C243.412 237.13 243.569 237.509 243.569 237.904V273.657C243.569 274.052 243.412 274.431 243.133 274.71C242.854 274.99 242.475 275.147 242.08 275.147Z" fill="#CCCCCC"/>
<path d="M167.593 290.789C167.198 290.789 166.819 290.632 166.54 290.352C166.26 290.073 166.104 289.694 166.104 289.299V253.546C166.104 253.151 166.26 252.772 166.54 252.492C166.819 252.213 167.198 252.056 167.593 252.056C167.988 252.056 168.367 252.213 168.647 252.492C168.926 252.772 169.083 253.151 169.083 253.546V289.299C169.083 289.694 168.926 290.073 168.647 290.352C168.367 290.632 167.988 290.789 167.593 290.789Z" fill="#CCCCCC"/>
<path d="M297.199 294.513C296.804 294.513 296.425 294.356 296.146 294.077C295.866 293.797 295.709 293.418 295.709 293.023V257.27C295.709 256.875 295.866 256.496 296.146 256.217C296.425 255.937 296.804 255.78 297.199 255.78C297.594 255.78 297.973 255.937 298.253 256.217C298.532 256.496 298.689 256.875 298.689 257.27V293.023C298.689 293.418 298.532 293.797 298.253 294.077C297.973 294.356 297.594 294.513 297.199 294.513Z" fill="#CCCCCC"/>
<path d="M294.22 406.242C293.825 406.242 293.446 406.085 293.166 405.806C292.887 405.526 292.73 405.147 292.73 404.752V361.55C292.73 361.155 292.887 360.776 293.166 360.497C293.446 360.218 293.825 360.061 294.22 360.061C294.615 360.061 294.994 360.218 295.273 360.497C295.552 360.776 295.709 361.155 295.709 361.55V404.752C295.709 405.147 295.552 405.526 295.273 405.806C294.994 406.085 294.615 406.242 294.22 406.242Z" fill="#CCCCCC"/>
<path d="M264.425 444.23C264.03 444.23 263.651 444.073 263.372 443.794C263.093 443.514 262.936 443.135 262.936 442.74V378.682C262.936 378.287 263.092 377.908 263.372 377.629C263.651 377.349 264.03 377.193 264.425 377.193C264.82 377.193 265.199 377.349 265.479 377.629C265.758 377.908 265.915 378.287 265.915 378.682V442.74C265.915 443.135 265.758 443.514 265.479 443.794C265.199 444.073 264.82 444.23 264.425 444.23Z" fill="#CCCCCC"/>
<path d="M270.384 334.736C269.989 334.736 269.61 334.579 269.331 334.299C269.052 334.02 268.895 333.641 268.895 333.246V245.352C268.895 244.957 269.051 244.578 269.331 244.299C269.61 244.02 269.989 243.863 270.384 243.863C270.779 243.863 271.158 244.02 271.438 244.299C271.717 244.578 271.874 244.957 271.874 245.352V333.246C271.874 333.641 271.717 334.02 271.438 334.299C271.158 334.579 270.779 334.736 270.384 334.736Z" fill="#CCCCCC"/>
<path d="M453.019 521.768C455.151 519.982 452.27 513.029 446.583 506.237C440.896 499.445 434.557 495.386 432.425 497.171C430.293 498.957 433.174 505.91 438.861 512.702C444.548 519.494 450.887 523.553 453.019 521.768Z" fill="#2F2E41"/>
<path d="M439.035 514.044C444.638 497.236 435.554 479.069 418.746 473.467C401.939 467.864 383.772 476.947 378.169 493.755C372.567 510.563 381.65 528.73 398.458 534.332C415.265 539.935 433.433 530.851 439.035 514.044Z" fill="#2F2E41"/>
<path d="M422.18 529.075H412.434V546.536H422.18V529.075Z" fill="#2F2E41"/>
<path d="M402.689 529.075H392.943V546.536H402.689V529.075Z" fill="#2F2E41"/>
<path d="M414.058 549.785C418.544 549.785 422.18 548.421 422.18 546.739C422.18 545.057 418.544 543.694 414.058 543.694C409.573 543.694 405.937 545.057 405.937 546.739C405.937 548.421 409.573 549.785 414.058 549.785Z" fill="#2F2E41"/>
<path d="M394.568 549.379C399.053 549.379 402.689 548.015 402.689 546.333C402.689 544.651 399.053 543.288 394.568 543.288C390.082 543.288 386.446 544.651 386.446 546.333C386.446 548.015 390.082 549.379 394.568 549.379Z" fill="#2F2E41"/>
<path d="M398.529 463.575C401.394 452.039 414.038 445.251 426.771 448.413C439.503 451.574 447.503 463.489 444.639 475.024C441.774 486.56 432.271 486.597 419.538 483.436C406.806 480.274 395.665 475.111 398.529 463.575Z" fill="#848383"/>
<path d="M386.963 495.888C388.154 493.375 382.632 488.261 374.628 484.465C366.624 480.669 359.17 479.628 357.978 482.141C356.786 484.654 362.309 489.768 370.313 493.564C378.316 497.36 385.771 498.401 386.963 495.888Z" fill="#2F2E41"/>
<path d="M403.806 507.826C409.713 507.826 414.501 503.037 414.501 497.13C414.501 491.224 409.713 486.435 403.806 486.435C397.899 486.435 393.111 491.224 393.111 497.13C393.111 503.037 397.899 507.826 403.806 507.826Z" fill="white"/>
<path d="M399.41 496.862C401.379 496.862 402.975 495.266 402.975 493.297C402.975 491.328 401.379 489.732 399.41 489.732C397.441 489.732 395.845 491.328 395.845 493.297C395.845 495.266 397.441 496.862 399.41 496.862Z" fill="#3F3D56"/>
<path d="M403.714 523.93C406.182 523.93 408.183 521.929 408.183 519.461C408.183 516.992 406.182 514.992 403.714 514.992C401.246 514.992 399.245 516.992 399.245 519.461C399.245 521.929 401.246 523.93 403.714 523.93Z" fill="white"/>
<path d="M500.197 550H324.41C324.212 550 324.023 549.921 323.883 549.782C323.744 549.642 323.665 549.453 323.665 549.255C323.665 549.058 323.744 548.868 323.883 548.728C324.023 548.589 324.212 548.51 324.41 548.51H500.197C500.394 548.51 500.584 548.589 500.723 548.728C500.863 548.868 500.942 549.058 500.942 549.255C500.942 549.453 500.863 549.642 500.723 549.782C500.584 549.921 500.394 550 500.197 550Z" fill="#3F3D56"/>
</g>
<defs>
<clipPath id="clip0_511_733">
<rect width="500.942" height="550" fill="white"/>
</clipPath>
</defs>
</svg>
