<svg width="550" height="361" viewBox="0 0 550 361" fill="none" xmlns="http://www.w3.org/2000/svg">
<g clip-path="url(#clip0_508_410)">
<path d="M272.172 61.2182C281.387 61.2182 288.857 53.7481 288.857 44.5332C288.857 35.3184 281.387 27.8483 272.172 27.8483C262.957 27.8483 255.487 35.3184 255.487 44.5332C255.487 53.7481 262.957 61.2182 272.172 61.2182Z" fill="#FD6584"/>
<path d="M309.514 36.6326C309.044 35.0897 308.132 33.7181 306.892 32.6867C305.652 31.6552 304.137 31.009 302.534 30.8274C302.497 30.8243 302.459 30.8243 302.422 30.8274C302.377 30.8134 302.331 30.8029 302.285 30.7962C296.698 30.0713 290.487 31.8335 286.306 35.6703C284.754 37.0722 283.513 38.7836 282.663 40.6944C281.888 39.6359 280.867 38.7822 279.688 38.2073C278.508 37.6324 277.207 37.3536 275.896 37.395C274.204 37.5068 272.589 38.1374 271.269 39.2009C269.95 40.2644 268.99 41.7089 268.522 43.3377C268.47 43.5366 268.485 43.7469 268.562 43.9372C268.64 44.1275 268.777 44.2876 268.953 44.3937C269.456 44.8236 270.053 45.1277 270.696 45.2811C272.077 45.5748 273.471 45.8435 274.864 46.0872C277.589 46.5621 280.328 46.9474 283.082 47.2432C284.9 47.4369 286.723 47.5911 288.549 47.7056C292.324 47.9431 296.117 47.9993 299.897 47.8806C301.772 47.8181 303.572 47.7556 305.284 46.9308C306.532 46.3172 307.598 45.3889 308.377 44.2375C309.111 43.13 309.593 41.8751 309.789 40.5612C309.986 39.2473 309.892 37.9063 309.514 36.6326Z" fill="#E6E6E6"/>
<path d="M275.189 60.9407C275.158 60.2416 275.04 59.549 274.84 58.8786C274.367 57.3358 273.454 55.9647 272.213 54.9334C270.972 53.9022 269.457 53.2557 267.853 53.0734C267.818 53.0703 267.782 53.0703 267.747 53.0734C267.7 53.06 267.652 53.0496 267.603 53.0422C264.511 52.6634 261.374 52.9859 258.424 53.9857C253.887 55.5042 249.907 58.5661 247.988 62.9403C247.212 61.8812 246.19 61.0271 245.01 60.4522C243.829 59.8772 242.527 59.5988 241.214 59.641C239.523 59.7527 237.908 60.3834 236.588 61.4468C235.269 62.5103 234.309 63.9549 233.841 65.5836C233.792 65.7826 233.808 65.9919 233.885 66.1816C233.963 66.3712 234.098 66.5315 234.272 66.6397C234.775 67.0683 235.373 67.3723 236.015 67.527C237.403 67.8207 238.79 68.0894 240.19 68.3331C242.914 68.808 245.651 69.1934 248.401 69.4892C253.987 70.0888 259.607 70.3018 265.223 70.1265C267.091 70.064 268.897 70.0015 270.609 69.1767C271.855 68.5629 272.919 67.6345 273.696 66.4834C274.791 64.8511 275.316 62.9024 275.189 60.9407Z" fill="#E6E6E6"/>
<path d="M492.493 263.397C492.733 274.773 491.163 286.115 487.842 296.999C487.726 297.394 487.587 297.789 487.447 298.185H418.988C419.966 293.365 421.52 288.681 423.615 284.232C429.312 272.14 438.614 261.792 447.799 251.514C460.449 237.352 472.797 223.307 474.75 204.89C479.765 212.534 483.767 220.796 486.656 229.469C483.119 230.78 479.872 232.771 477.099 235.329C476.332 236.05 475.518 237.097 475.913 238.097C476.285 238.934 477.308 239.213 478.215 239.399C480.401 239.817 482.587 240.236 484.773 240.631C486.494 240.98 488.238 241.306 489.982 241.631C491.515 248.789 492.356 256.078 492.493 263.397Z" fill="#F2F2F2"/>
<path d="M550 255.863C539.024 262.536 532.048 272.861 526.351 284.418C521.393 285.548 516.816 287.953 513.073 291.394C512.282 292.115 511.468 293.162 511.887 294.162C512.236 294.999 513.282 295.278 514.189 295.464C516.352 295.882 518.561 296.301 520.723 296.696C520.514 297.185 520.305 297.696 520.096 298.185H447.543C450.837 293.743 454.484 289.575 458.45 285.721C459.31 284.86 460.194 284.046 461.1 283.209C470.349 274.851 480.969 268.149 492.493 263.397C510.649 255.807 530.502 253.206 550 255.863Z" fill="#F2F2F2"/>
<path d="M459.635 298.185H395.036C394.683 293.012 394.714 287.82 395.129 282.651C397.71 250.723 415.081 220.307 441.288 201.89C437.94 213.819 439.66 225.679 443.148 237.585C442.66 237.748 442.172 237.887 441.73 238.073C438.192 239.384 434.945 241.375 432.173 243.933C431.405 244.654 430.591 245.701 430.987 246.701C431.335 247.538 432.382 247.817 433.289 248.003C435.475 248.421 437.661 248.84 439.823 249.235C441.567 249.584 443.311 249.91 445.055 250.258C445.869 250.398 446.683 250.561 447.497 250.723C447.613 251.002 447.683 251.258 447.799 251.514C451.892 262.792 456.357 274.163 458.449 285.721C458.968 288.621 459.325 291.547 459.519 294.487C459.589 295.72 459.635 296.952 459.635 298.185Z" fill="#F2F2F2"/>
<path d="M107.563 263.397C107.803 274.773 106.233 286.115 102.912 296.999C102.796 297.394 102.657 297.789 102.517 298.185H34.0576C35.0362 293.365 36.5899 288.681 38.6853 284.232C44.3823 272.14 53.6839 261.792 62.8692 251.514C75.5193 237.352 87.8672 223.307 89.8206 204.89C94.8348 212.534 98.8368 220.796 101.727 229.469C98.1887 230.78 94.9418 232.771 92.1692 235.329C91.4018 236.05 90.5878 237.097 90.9832 238.097C91.3552 238.934 92.3784 239.213 93.2853 239.399C95.4712 239.817 97.6571 240.236 99.8429 240.631C101.564 240.98 103.308 241.306 105.052 241.631C106.585 248.789 107.426 256.078 107.563 263.397Z" fill="#F2F2F2"/>
<path d="M165.07 255.863C154.094 262.536 147.118 272.861 141.421 284.418C136.463 285.548 131.886 287.953 128.143 291.394C127.352 292.115 126.538 293.162 126.957 294.162C127.306 294.999 128.352 295.278 129.259 295.464C131.422 295.882 133.631 296.301 135.793 296.696C135.584 297.185 135.375 297.696 135.166 298.185H62.6134C65.9069 293.743 69.5542 289.575 73.5195 285.721C74.3799 284.86 75.2636 284.046 76.1705 283.209C85.419 274.851 96.0386 268.149 107.563 263.397C125.719 255.807 145.572 253.206 165.07 255.863Z" fill="#F2F2F2"/>
<path d="M74.7055 298.185H10.1062C9.75342 293.012 9.78454 287.82 10.1993 282.651C12.7804 250.723 30.151 220.307 56.3582 201.89C53.0096 213.819 54.7304 225.679 58.2185 237.585C57.7302 237.748 57.2419 237.887 56.8 238.073C53.2622 239.384 50.0153 241.375 47.2427 243.933C46.4753 244.654 45.6615 245.701 46.0568 246.701C46.4055 247.538 47.4519 247.817 48.3588 248.003C50.5447 248.421 52.7306 248.84 54.8932 249.235C56.6372 249.584 58.3813 249.91 60.1253 250.258C60.9391 250.398 61.7531 250.561 62.5669 250.723C62.6832 251.002 62.753 251.258 62.8692 251.514C66.9619 262.792 71.4267 274.163 73.5196 285.721C74.0376 288.621 74.3947 291.547 74.5893 294.487C74.659 295.72 74.7055 296.952 74.7055 298.185Z" fill="#F2F2F2"/>
<path d="M315.199 271.063L372.92 276.187L373.538 276.243V29.9508C373.332 29.8071 373.126 29.6634 372.92 29.5197C360.89 21.1054 347.877 14.1929 334.171 8.9359L331.221 49.616L330.952 53.3403L328.034 93.683L327.134 106.093L315.305 269.626L315.199 271.063Z" fill="#E6E6E6"/>
<path d="M172.456 25.3641C172.044 25.6266 171.631 25.8891 171.219 26.164V276.243L172.456 276.131L229.552 271.063L229.446 269.626L217.617 106.093L216.717 93.6829L213.798 53.3403L213.53 49.616L210.437 6.95501C197.097 11.5788 184.349 17.7577 172.456 25.3641Z" fill="#E6E6E6"/>
<path d="M171.219 26.164C170.388 26.7014 169.557 27.2513 168.738 27.8074V279.655C168.738 285.948 172.469 291.222 177.455 292.566C178.27 292.786 179.111 292.897 179.955 292.897H365.421C366.263 292.898 367.102 292.787 367.914 292.566C369.768 292.051 371.448 291.045 372.776 289.654C375.309 286.946 376.693 283.362 376.638 279.655V32.1879C375.613 31.4318 374.582 30.6819 373.538 29.9508C373.332 29.8071 373.126 29.6634 372.92 29.5196V279.655C372.921 280.466 372.825 281.274 372.632 282.061C371.751 285.779 368.845 288.504 365.421 288.504H179.955C175.818 288.504 172.456 284.536 172.456 279.655V25.3641C172.044 25.6266 171.631 25.889 171.219 26.164Z" fill="#E6E6E6"/>
<path d="M374.778 49.6185H170.595V53.3422H374.778V49.6185Z" fill="#E6E6E6"/>
<path d="M312.243 2.11837C311.006 1.81218 309.769 1.52473 308.519 1.25603V102.369H312.243V2.11837Z" fill="#E6E6E6"/>
<path d="M236.857 0C235.613 0.231208 234.37 0.468667 233.133 0.72487V102.369H236.857V0Z" fill="#E6E6E6"/>
<path d="M130.564 286.379C130.563 288.516 130.972 290.633 131.77 292.615C132.076 293.384 132.442 294.128 132.863 294.84C133.408 295.769 134.04 296.643 134.75 297.452C136.32 299.241 138.254 300.674 140.422 301.656C142.59 302.638 144.943 303.145 147.323 303.145H391.847C396.292 303.145 400.555 301.379 403.698 298.236C406.841 295.093 408.607 290.83 408.607 286.385C408.607 281.94 406.841 277.678 403.698 274.535C400.555 271.392 396.292 269.626 391.847 269.626H147.323C142.881 269.63 138.621 271.397 135.479 274.537C132.338 277.678 130.57 281.937 130.564 286.379Z" fill="#E6E6E6"/>
<path d="M170.596 106.095L373.537 106.095V93.6823L170.596 93.6823V106.095Z" fill="#E6E6E6"/>
<path d="M280.755 96.7853H263.378C263.378 94.9748 264.097 93.2384 265.377 91.9581C266.658 90.6778 268.394 89.9586 270.205 89.9586H273.928C274.825 89.9586 275.713 90.1351 276.541 90.4782C277.369 90.8213 278.122 91.3242 278.756 91.9581C279.389 92.592 279.892 93.3446 280.235 94.1728C280.578 95.0011 280.755 95.8888 280.755 96.7853Z" fill="#E6E6E6"/>
<path d="M0 295.952C5.42855 302.385 11.3001 308.43 17.5718 314.043H521.593C527.864 308.43 533.736 302.385 539.164 295.952H0Z" fill="#3F3D56"/>
<path d="M247.886 235.457V299.545H292.784V235.457C292.785 234.996 292.638 234.547 292.365 234.176C292.091 233.805 291.706 233.531 291.266 233.395C291.058 233.326 290.841 233.293 290.622 233.295H250.055C249.77 233.294 249.488 233.35 249.226 233.458C248.963 233.567 248.724 233.726 248.522 233.927C248.321 234.127 248.161 234.366 248.052 234.629C247.943 234.891 247.886 235.173 247.886 235.457ZM265.408 257.478C265.42 256.215 265.93 255.007 266.828 254.118C267.725 253.229 268.938 252.73 270.201 252.73C271.464 252.73 272.677 253.229 273.574 254.118C274.472 255.007 274.982 256.215 274.994 257.478V264.914C274.987 266.181 274.479 267.394 273.581 268.288C272.683 269.181 271.468 269.683 270.201 269.683C268.934 269.683 267.719 269.181 266.82 268.288C265.922 267.394 265.414 266.181 265.408 264.914V257.478Z" fill="#2F2E41"/>
<path d="M247.749 297.496V303.676C247.75 303.996 247.877 304.303 248.103 304.53C248.329 304.757 248.635 304.886 248.955 304.888H291.716C292.036 304.887 292.343 304.758 292.569 304.531C292.795 304.304 292.922 303.996 292.922 303.676V297.496H247.749Z" fill="#3F3D56"/>
<path d="M177.255 138.9V255.916C177.256 257.407 177.849 258.837 178.904 259.891C179.958 260.946 181.388 261.539 182.879 261.54H356.285C357.776 261.539 359.206 260.946 360.26 259.891C361.315 258.837 361.908 257.407 361.909 255.916V138.9C361.905 137.41 361.312 135.982 360.258 134.929C359.203 133.876 357.775 133.284 356.285 133.282H182.879C181.389 133.284 179.961 133.876 178.907 134.929C177.853 135.982 177.259 137.41 177.255 138.9Z" fill="#3F3D56"/>
<path d="M181.323 140.356V254.472C181.325 255.269 181.642 256.033 182.205 256.596C182.768 257.16 183.532 257.477 184.329 257.478H354.842C355.638 257.477 356.402 257.16 356.966 256.596C357.529 256.033 357.846 255.269 357.847 254.472V140.356C357.847 139.558 357.531 138.793 356.967 138.228C356.404 137.664 355.639 137.345 354.842 137.344H184.329C183.531 137.345 182.767 137.664 182.203 138.228C181.64 138.793 181.323 139.558 181.323 140.356Z" fill="#6246EA"/>
<path d="M216.092 306.344C216.266 306.562 216.486 306.737 216.737 306.857C216.988 306.978 217.263 307.039 217.542 307.038H318.986C319.263 307.038 319.537 306.975 319.788 306.856C320.038 306.736 320.259 306.563 320.433 306.347C320.608 306.132 320.733 305.88 320.798 305.61C320.863 305.341 320.867 305.06 320.811 304.788L319.236 297.308C319.171 297.003 319.03 296.72 318.827 296.483C318.624 296.246 318.365 296.064 318.074 295.952C317.863 295.87 317.638 295.827 317.411 295.827H219.11C218.884 295.827 218.659 295.87 218.448 295.952C218.156 296.064 217.897 296.246 217.694 296.483C217.491 296.719 217.351 297.003 217.286 297.308L215.711 304.788C215.655 305.06 215.66 305.34 215.726 305.609C215.792 305.878 215.917 306.129 216.092 306.344Z" fill="#2F2E41"/>
<path d="M313.871 299.049H316.385C316.554 299.049 316.69 298.913 316.69 298.744V297.48C316.69 297.311 316.554 297.175 316.385 297.175H313.871C313.703 297.175 313.566 297.311 313.566 297.48V298.744C313.566 298.913 313.703 299.049 313.871 299.049Z" fill="#3F3D56"/>
<path d="M307.622 299.049H310.137C310.305 299.049 310.442 298.913 310.442 298.744V297.48C310.442 297.311 310.305 297.175 310.137 297.175H307.622C307.454 297.175 307.317 297.311 307.317 297.48V298.744C307.317 298.913 307.454 299.049 307.622 299.049Z" fill="#3F3D56"/>
<path d="M301.373 299.049H303.888C304.056 299.049 304.193 298.913 304.193 298.744V297.48C304.193 297.311 304.056 297.175 303.888 297.175H301.373C301.205 297.175 301.068 297.311 301.068 297.48V298.744C301.068 298.913 301.205 299.049 301.373 299.049Z" fill="#3F3D56"/>
<path d="M295.124 299.049H297.639C297.807 299.049 297.944 298.913 297.944 298.744V297.48C297.944 297.311 297.807 297.175 297.639 297.175H295.124C294.956 297.175 294.819 297.311 294.819 297.48V298.744C294.819 298.913 294.956 299.049 295.124 299.049Z" fill="#3F3D56"/>
<path d="M288.876 299.049H291.39C291.558 299.049 291.695 298.913 291.695 298.744V297.48C291.695 297.311 291.558 297.175 291.39 297.175H288.876C288.707 297.175 288.571 297.311 288.571 297.48V298.744C288.571 298.913 288.707 299.049 288.876 299.049Z" fill="#3F3D56"/>
<path d="M282.627 299.049H285.141C285.31 299.049 285.446 298.913 285.446 298.744V297.48C285.446 297.311 285.31 297.175 285.141 297.175H282.627C282.458 297.175 282.322 297.311 282.322 297.48V298.744C282.322 298.913 282.458 299.049 282.627 299.049Z" fill="#3F3D56"/>
<path d="M276.378 299.049H278.892C279.061 299.049 279.197 298.913 279.197 298.744V297.48C279.197 297.311 279.061 297.175 278.892 297.175H276.378C276.209 297.175 276.073 297.311 276.073 297.48V298.744C276.073 298.913 276.209 299.049 276.378 299.049Z" fill="#3F3D56"/>
<path d="M270.129 299.049H272.643C272.812 299.049 272.948 298.913 272.948 298.744V297.48C272.948 297.311 272.812 297.175 272.643 297.175H270.129C269.961 297.175 269.824 297.311 269.824 297.48V298.744C269.824 298.913 269.961 299.049 270.129 299.049Z" fill="#3F3D56"/>
<path d="M263.88 299.049H266.395C266.563 299.049 266.7 298.913 266.7 298.744V297.48C266.7 297.311 266.563 297.175 266.395 297.175H263.88C263.712 297.175 263.575 297.311 263.575 297.48V298.744C263.575 298.913 263.712 299.049 263.88 299.049Z" fill="#3F3D56"/>
<path d="M257.631 299.049H260.146C260.314 299.049 260.451 298.913 260.451 298.744V297.48C260.451 297.311 260.314 297.175 260.146 297.175H257.631C257.463 297.175 257.326 297.311 257.326 297.48V298.744C257.326 298.913 257.463 299.049 257.631 299.049Z" fill="#3F3D56"/>
<path d="M251.383 299.049H253.897C254.065 299.049 254.202 298.913 254.202 298.744V297.48C254.202 297.311 254.065 297.175 253.897 297.175H251.383C251.214 297.175 251.077 297.311 251.077 297.48V298.744C251.077 298.913 251.214 299.049 251.383 299.049Z" fill="#3F3D56"/>
<path d="M245.134 299.049H247.648C247.817 299.049 247.953 298.913 247.953 298.744V297.48C247.953 297.311 247.817 297.175 247.648 297.175H245.134C244.965 297.175 244.829 297.311 244.829 297.48V298.744C244.829 298.913 244.965 299.049 245.134 299.049Z" fill="#3F3D56"/>
<path d="M238.885 299.049H241.399C241.568 299.049 241.704 298.913 241.704 298.744V297.48C241.704 297.311 241.568 297.175 241.399 297.175H238.885C238.716 297.175 238.58 297.311 238.58 297.48V298.744C238.58 298.913 238.716 299.049 238.885 299.049Z" fill="#3F3D56"/>
<path d="M232.636 299.049H235.15C235.319 299.049 235.455 298.913 235.455 298.744V297.48C235.455 297.311 235.319 297.175 235.15 297.175H232.636C232.467 297.175 232.331 297.311 232.331 297.48V298.744C232.331 298.913 232.467 299.049 232.636 299.049Z" fill="#3F3D56"/>
<path d="M226.387 299.049H228.901C229.07 299.049 229.206 298.913 229.206 298.744V297.48C229.206 297.311 229.07 297.175 228.901 297.175H226.387C226.218 297.175 226.082 297.311 226.082 297.48V298.744C226.082 298.913 226.218 299.049 226.387 299.049Z" fill="#3F3D56"/>
<path d="M220.138 299.049H222.652C222.821 299.049 222.958 298.913 222.958 298.744V297.48C222.958 297.311 222.821 297.175 222.652 297.175H220.138C219.97 297.175 219.833 297.311 219.833 297.48V298.744C219.833 298.913 219.97 299.049 220.138 299.049Z" fill="#3F3D56"/>
<path d="M313.945 302.174H316.459C316.628 302.174 316.764 302.037 316.764 301.869V300.604C316.764 300.436 316.628 300.299 316.459 300.299H313.945C313.777 300.299 313.64 300.436 313.64 300.604V301.869C313.64 302.037 313.777 302.174 313.945 302.174Z" fill="#3F3D56"/>
<path d="M307.696 302.174H310.21C310.379 302.174 310.515 302.037 310.515 301.869V300.604C310.515 300.436 310.379 300.299 310.21 300.299H307.696C307.528 300.299 307.391 300.436 307.391 300.604V301.869C307.391 302.037 307.528 302.174 307.696 302.174Z" fill="#3F3D56"/>
<path d="M301.447 302.174H303.962C304.13 302.174 304.267 302.037 304.267 301.869V300.604C304.267 300.436 304.13 300.299 303.962 300.299H301.447C301.279 300.299 301.142 300.436 301.142 300.604V301.869C301.142 302.037 301.279 302.174 301.447 302.174Z" fill="#3F3D56"/>
<path d="M295.198 302.174H297.713C297.881 302.174 298.018 302.037 298.018 301.869V300.604C298.018 300.436 297.881 300.299 297.713 300.299H295.198C295.03 300.299 294.893 300.436 294.893 300.604V301.869C294.893 302.037 295.03 302.174 295.198 302.174Z" fill="#3F3D56"/>
<path d="M288.949 302.174H291.464C291.632 302.174 291.769 302.037 291.769 301.869V300.604C291.769 300.436 291.632 300.299 291.464 300.299H288.949C288.781 300.299 288.644 300.436 288.644 300.604V301.869C288.644 302.037 288.781 302.174 288.949 302.174Z" fill="#3F3D56"/>
<path d="M282.701 302.174H285.215C285.383 302.174 285.52 302.037 285.52 301.869V300.604C285.52 300.436 285.383 300.299 285.215 300.299H282.701C282.532 300.299 282.396 300.436 282.396 300.604V301.869C282.396 302.037 282.532 302.174 282.701 302.174Z" fill="#3F3D56"/>
<path d="M276.452 302.174H278.966C279.135 302.174 279.271 302.037 279.271 301.869V300.604C279.271 300.436 279.135 300.299 278.966 300.299H276.452C276.283 300.299 276.147 300.436 276.147 300.604V301.869C276.147 302.037 276.283 302.174 276.452 302.174Z" fill="#3F3D56"/>
<path d="M270.203 302.174H272.717C272.886 302.174 273.022 302.037 273.022 301.869V300.604C273.022 300.436 272.886 300.299 272.717 300.299H270.203C270.034 300.299 269.898 300.436 269.898 300.604V301.869C269.898 302.037 270.034 302.174 270.203 302.174Z" fill="#3F3D56"/>
<path d="M263.954 302.174H266.468C266.637 302.174 266.773 302.037 266.773 301.869V300.604C266.773 300.436 266.637 300.299 266.468 300.299H263.954C263.786 300.299 263.649 300.436 263.649 300.604V301.869C263.649 302.037 263.786 302.174 263.954 302.174Z" fill="#3F3D56"/>
<path d="M257.705 302.174H260.22C260.388 302.174 260.525 302.037 260.525 301.869V300.604C260.525 300.436 260.388 300.299 260.22 300.299H257.705C257.537 300.299 257.4 300.436 257.4 300.604V301.869C257.4 302.037 257.537 302.174 257.705 302.174Z" fill="#3F3D56"/>
<path d="M251.456 302.174H253.971C254.139 302.174 254.276 302.037 254.276 301.869V300.604C254.276 300.436 254.139 300.299 253.971 300.299H251.456C251.288 300.299 251.151 300.436 251.151 300.604V301.869C251.151 302.037 251.288 302.174 251.456 302.174Z" fill="#3F3D56"/>
<path d="M245.207 302.174H247.722C247.89 302.174 248.027 302.037 248.027 301.869V300.604C248.027 300.436 247.89 300.299 247.722 300.299H245.207C245.039 300.299 244.902 300.436 244.902 300.604V301.869C244.902 302.037 245.039 302.174 245.207 302.174Z" fill="#3F3D56"/>
<path d="M238.959 302.174H241.473C241.641 302.174 241.778 302.037 241.778 301.869V300.604C241.778 300.436 241.641 300.299 241.473 300.299H238.959C238.79 300.299 238.654 300.436 238.654 300.604V301.869C238.654 302.037 238.79 302.174 238.959 302.174Z" fill="#3F3D56"/>
<path d="M232.71 302.174H235.224C235.392 302.174 235.529 302.037 235.529 301.869V300.604C235.529 300.436 235.392 300.299 235.224 300.299H232.71C232.541 300.299 232.405 300.436 232.405 300.604V301.869C232.405 302.037 232.541 302.174 232.71 302.174Z" fill="#3F3D56"/>
<path d="M226.461 302.174H228.975C229.144 302.174 229.28 302.037 229.28 301.869V300.604C229.28 300.436 229.144 300.299 228.975 300.299H226.461C226.292 300.299 226.156 300.436 226.156 300.604V301.869C226.156 302.037 226.292 302.174 226.461 302.174Z" fill="#3F3D56"/>
<path d="M220.212 302.174H222.726C222.895 302.174 223.031 302.037 223.031 301.869V300.604C223.031 300.436 222.895 300.299 222.726 300.299H220.212C220.044 300.299 219.907 300.436 219.907 300.604V301.869C219.907 302.037 220.044 302.174 220.212 302.174Z" fill="#3F3D56"/>
<path d="M262.079 305.923H286.465C286.633 305.923 286.77 305.786 286.77 305.618V304.353C286.77 304.185 286.633 304.048 286.465 304.048H262.079C261.911 304.048 261.774 304.185 261.774 304.353V305.618C261.774 305.786 261.911 305.923 262.079 305.923Z" fill="#3F3D56"/>
<path d="M192.897 153.064H352.445C352.611 153.06 352.769 152.992 352.885 152.873C353.001 152.755 353.066 152.595 353.066 152.429C353.066 152.263 353.001 152.104 352.885 151.986C352.769 151.867 352.611 151.799 352.445 151.795H192.897C192.731 151.799 192.574 151.867 192.458 151.986C192.342 152.104 192.277 152.263 192.277 152.429C192.277 152.595 192.342 152.755 192.458 152.873C192.574 152.992 192.731 153.06 192.897 153.064Z" fill="#3F3D56"/>
<path d="M341.585 148.555C343.638 148.555 345.303 146.854 345.303 144.754C345.303 142.655 343.638 140.953 341.585 140.953C339.531 140.953 337.866 142.655 337.866 144.754C337.866 146.854 339.531 148.555 341.585 148.555Z" fill="#3F3D56"/>
<path d="M328.74 148.555C330.793 148.555 332.458 146.854 332.458 144.754C332.458 142.655 330.793 140.953 328.74 140.953C326.686 140.953 325.021 142.655 325.021 144.754C325.021 146.854 326.686 148.555 328.74 148.555Z" fill="#3F3D56"/>
<path d="M315.894 148.555C317.948 148.555 319.613 146.854 319.613 144.754C319.613 142.655 317.948 140.953 315.894 140.953C313.841 140.953 312.176 142.655 312.176 144.754C312.176 146.854 313.841 148.555 315.894 148.555Z" fill="#3F3D56"/>
<path d="M199.951 142.587C199.951 142.676 199.968 142.765 200.002 142.849C200.036 142.932 200.086 143.007 200.149 143.071C200.213 143.135 200.288 143.186 200.371 143.221C200.454 143.255 200.542 143.274 200.632 143.274H209.756C209.936 143.27 210.108 143.195 210.234 143.066C210.36 142.937 210.43 142.764 210.43 142.583C210.43 142.403 210.36 142.23 210.234 142.101C210.108 141.972 209.936 141.897 209.756 141.893H200.632C200.45 141.895 200.276 141.969 200.149 142.099C200.021 142.229 199.95 142.404 199.951 142.587Z" fill="#3F3D56"/>
<path d="M199.951 145.18C199.951 145.27 199.968 145.359 200.002 145.442C200.036 145.525 200.086 145.601 200.149 145.665C200.213 145.728 200.288 145.779 200.371 145.814C200.454 145.849 200.542 145.867 200.632 145.867H209.756C209.936 145.863 210.108 145.789 210.234 145.66C210.36 145.531 210.431 145.357 210.431 145.177C210.431 144.996 210.36 144.823 210.234 144.694C210.108 144.565 209.936 144.49 209.756 144.486H200.632C200.45 144.488 200.276 144.563 200.149 144.693C200.021 144.823 199.95 144.998 199.951 145.18Z" fill="#3F3D56"/>
<path d="M199.951 147.767C199.95 147.949 200.021 148.124 200.149 148.254C200.276 148.384 200.45 148.458 200.632 148.46H209.756C209.936 148.456 210.108 148.382 210.234 148.253C210.36 148.124 210.43 147.95 210.43 147.77C210.43 147.59 210.36 147.416 210.234 147.287C210.108 147.158 209.936 147.084 209.756 147.079H200.632C200.542 147.08 200.454 147.098 200.371 147.133C200.288 147.168 200.213 147.218 200.149 147.282C200.086 147.346 200.036 147.422 200.002 147.505C199.968 147.588 199.951 147.677 199.951 147.767Z" fill="#3F3D56"/>
<path d="M202.771 167.809H199.493C198.499 167.809 197.693 168.615 197.693 169.609C197.693 170.603 198.499 171.408 199.493 171.408H202.771C203.765 171.408 204.57 170.603 204.57 169.609C204.57 168.615 203.765 167.809 202.771 167.809Z" fill="#E6E6E6"/>
<path d="M230.066 167.509H209.691C208.697 167.509 207.891 168.315 207.891 169.309C207.891 170.303 208.697 171.108 209.691 171.108H230.066C231.06 171.108 231.865 170.303 231.865 169.309C231.865 168.315 231.06 167.509 230.066 167.509Z" fill="#E6E6E6"/>
<path d="M212.769 175.933H209.491C208.497 175.933 207.691 176.738 207.691 177.732C207.691 178.726 208.497 179.532 209.491 179.532H212.769C213.763 179.532 214.568 178.726 214.568 177.732C214.568 176.738 213.763 175.933 212.769 175.933Z" fill="#E6E6E6"/>
<path d="M240.064 175.632H219.689C218.695 175.632 217.889 176.438 217.889 177.432C217.889 178.426 218.695 179.232 219.689 179.232H240.064C241.058 179.232 241.863 178.426 241.863 177.432C241.863 176.438 241.058 175.632 240.064 175.632Z" fill="#E6E6E6"/>
<path d="M222.767 184.056H219.489C218.495 184.056 217.689 184.862 217.689 185.856C217.689 186.85 218.495 187.655 219.489 187.655H222.767C223.761 187.655 224.567 186.85 224.567 185.856C224.567 184.862 223.761 184.056 222.767 184.056Z" fill="#E6E6E6"/>
<path d="M202.771 224.482H199.493C198.499 224.482 197.693 225.288 197.693 226.282C197.693 227.276 198.499 228.081 199.493 228.081H202.771C203.765 228.081 204.57 227.276 204.57 226.282C204.57 225.288 203.765 224.482 202.771 224.482Z" fill="#E6E6E6"/>
<path d="M230.066 224.782H209.691C208.697 224.782 207.891 225.588 207.891 226.582C207.891 227.576 208.697 228.381 209.691 228.381H230.066C231.06 228.381 231.865 227.576 231.865 226.582C231.865 225.588 231.06 224.782 230.066 224.782Z" fill="#E6E6E6"/>
<path d="M212.769 216.359H209.491C208.497 216.359 207.691 217.164 207.691 218.158C207.691 219.152 208.497 219.958 209.491 219.958H212.769C213.763 219.958 214.568 219.152 214.568 218.158C214.568 217.164 213.763 216.359 212.769 216.359Z" fill="#E6E6E6"/>
<path d="M240.064 216.659H219.689C218.695 216.659 217.889 217.464 217.889 218.458C217.889 219.452 218.695 220.258 219.689 220.258H240.064C241.058 220.258 241.863 219.452 241.863 218.458C241.863 217.464 241.058 216.659 240.064 216.659Z" fill="#E6E6E6"/>
<path d="M222.767 208.235H219.489C218.495 208.235 217.689 209.041 217.689 210.035C217.689 211.029 218.495 211.834 219.489 211.834H222.767C223.761 211.834 224.567 211.029 224.567 210.035C224.567 209.041 223.761 208.235 222.767 208.235Z" fill="#E6E6E6"/>
<path d="M218.655 341.158C218.518 341.227 218.38 341.296 218.243 341.358C217.374 341.789 216.499 342.214 215.618 342.633C212.981 343.889 210.311 345.082 207.607 346.213C200.493 349.189 193.194 351.7 185.755 353.731C184.505 345.938 183.293 327.561 182.131 314.044C181.912 311.501 181.693 309.133 181.474 307.039C181.267 304.291 180.872 301.56 180.293 298.866C180.237 298.655 180.155 298.451 180.05 298.26C180.168 299.341 180.293 302.565 180.412 307.039C180.475 309.133 180.531 311.501 180.593 314.044C180.887 327.054 181.193 344.757 181.499 354.837C180.631 355.049 179.756 355.262 178.881 355.462C178.331 355.593 177.775 355.718 177.219 355.837C176.544 355.987 175.869 356.137 175.194 356.274C174.488 356.424 173.782 356.568 173.076 356.705C161.537 358.972 149.804 360.11 138.045 360.105C137.264 360.105 136.489 360.098 135.708 360.092C135.47 360.092 135.233 360.086 134.989 360.08C134.302 360.067 133.589 360.055 132.865 360.036C118.968 359.652 105.162 357.662 91.722 354.106L92.2656 314.044L92.3594 307.039L92.3969 304.383C92.0873 305.238 91.9021 306.132 91.847 307.039C91.6282 308.745 91.4033 311.163 91.1783 314.044C90.3223 325.142 89.4411 343.045 88.5288 353.231C77.7245 350.156 69.826 347.351 59.9528 342.414C59.5716 342.227 59.1842 342.033 58.803 341.839C58.8717 341.358 58.9467 340.877 59.0154 340.383C60.134 332.61 58.8155 322.493 60.0528 314.044C60.9963 307.527 61.9712 301.265 62.9522 295.954C64.1395 289.561 65.3455 284.537 66.5391 282.094C67.9138 279.275 69.2886 276.501 70.6196 273.845C71.1945 272.702 71.759 271.579 72.313 270.477C72.613 269.883 72.9129 269.296 73.2066 268.721C74.5439 266.103 75.8061 263.685 76.9622 261.541C77.7745 260.035 78.5244 258.673 79.2118 257.479C80.0179 256.074 80.7302 254.911 81.3176 254.03C85.6562 247.454 92.1117 242.557 99.6143 240.151L99.8018 240.101L99.983 240.176L100.189 240.27L112.1 235.915L117.417 223.111L144.731 221.43L149.143 224.785L151.399 226.504L153.804 228.335L158.229 231.703L159.485 232.09L161.353 232.665L174.132 236.59L174.263 236.533L174.451 236.583C181.278 238.769 187.254 243.028 191.548 248.769C191.972 249.318 192.366 249.887 192.747 250.462C193.785 251.999 195.184 254.43 196.834 257.479C197.515 258.736 198.234 260.098 198.99 261.541C199.446 262.41 203.383 274.695 207.213 287.243C210.794 298.991 214.281 310.97 214.737 314.044C214.818 314.613 214.906 315.188 214.987 315.756C215.506 319.312 216.018 322.893 216.512 326.386C217.243 331.566 217.955 336.565 218.636 341.033C218.643 341.077 218.649 341.114 218.655 341.158Z" fill="#3F3D56"/>
<path opacity="0.2" d="M189.709 295.925L184.399 275.434L179.711 293.115L189.709 295.925Z" fill="black"/>
<path d="M9.89149 295.687C10.1668 296.489 10.689 297.183 11.3832 297.669C12.0774 298.155 12.9078 298.409 13.7552 298.394L30.3096 297.968C31.1632 297.951 31.9885 297.659 32.6622 297.134C33.3358 296.61 33.8216 295.881 34.047 295.058L36.3896 270.008C37.2207 270.384 38.1255 270.57 39.0378 270.552C40.6385 270.512 42.1576 269.837 43.2611 268.677C44.3645 267.517 44.9618 265.966 44.9216 264.365C44.8815 262.764 44.2071 261.245 43.0468 260.142C41.8865 259.038 40.3355 258.441 38.7348 258.481C38.3702 258.48 38.0065 258.518 37.6499 258.594C37.2621 258.174 36.7907 257.841 36.2662 257.614C35.7416 257.388 35.1754 257.274 34.6042 257.28L9.13971 257.937C8.92848 257.945 8.71832 257.971 8.51159 258.015C7.95315 258.119 7.4235 258.342 6.95828 258.668C6.49305 258.994 6.10304 259.416 5.81451 259.905C5.52599 260.394 5.34563 260.94 5.28559 261.505C5.22554 262.07 5.2872 262.641 5.46641 263.18L9.89149 295.687ZM36.87 268.307L38.537 262.337C38.7266 261.648 38.731 260.92 38.5497 260.229C38.6306 260.228 38.7019 260.19 38.7828 260.19C39.9258 260.166 41.0315 260.597 41.8575 261.387C42.6835 262.178 43.1624 263.263 43.1892 264.406C43.216 265.549 42.7884 266.656 42.0003 267.484C41.2122 268.312 40.1278 268.794 38.985 268.824C38.2461 268.847 37.5148 268.668 36.87 268.307Z" fill="#2F2E41"/>
<path d="M8.5116 258.015C9.05411 261.117 15.1536 263.298 22.4877 262.919C29.2319 262.608 34.7464 260.24 35.7567 257.433C35.3828 257.323 34.994 257.271 34.6042 257.28L9.13972 257.937C8.92849 257.945 8.71833 257.971 8.5116 258.015Z" fill="#3F3D56"/>
<path d="M23.8319 281.922C23.8654 281.914 23.8973 281.9 23.9262 281.881L27.5213 279.528C27.5647 279.499 27.6004 279.46 27.6251 279.415C27.6499 279.369 27.6628 279.318 27.6628 279.266C27.6629 279.214 27.6499 279.163 27.6253 279.118C27.6006 279.072 27.5649 279.033 27.5215 279.005L23.7848 276.558C23.7505 276.535 23.712 276.519 23.6717 276.511C23.6313 276.504 23.5898 276.504 23.5495 276.512C23.5092 276.52 23.471 276.536 23.437 276.56C23.4029 276.583 23.3738 276.612 23.3513 276.647C23.3287 276.681 23.3132 276.72 23.3056 276.76C23.298 276.8 23.2984 276.842 23.3069 276.882C23.3153 276.922 23.3316 276.961 23.3549 276.995C23.3782 277.028 23.4079 277.057 23.4424 277.08L26.7798 279.266L23.5842 281.358C23.5223 281.398 23.4768 281.459 23.4557 281.53C23.4346 281.601 23.4394 281.677 23.4691 281.745C23.4988 281.813 23.5516 281.868 23.618 281.9C23.6844 281.932 23.7602 281.94 23.8319 281.922Z" fill="#6246EA"/>
<path d="M18.1537 282.184C18.214 282.169 18.2684 282.136 18.3099 282.089C18.3514 282.043 18.3781 281.985 18.3865 281.924C18.395 281.862 18.3849 281.799 18.3574 281.743C18.33 281.687 18.2864 281.641 18.2325 281.61L14.9186 279.71L18.1216 277.331C18.1545 277.307 18.1823 277.276 18.2033 277.241C18.2243 277.206 18.2383 277.167 18.2442 277.126C18.2502 277.085 18.2481 277.044 18.2381 277.004C18.2281 276.965 18.2104 276.927 18.186 276.894C18.1615 276.861 18.1308 276.834 18.0956 276.813C18.0604 276.792 18.0214 276.778 17.9809 276.772C17.9403 276.766 17.899 276.768 17.8592 276.778C17.8194 276.788 17.782 276.805 17.7491 276.83L14.1631 279.494C14.1215 279.524 14.0882 279.565 14.0662 279.612C14.0443 279.659 14.0344 279.711 14.0374 279.763C14.0405 279.815 14.0564 279.865 14.0837 279.909C14.111 279.953 14.1489 279.989 14.1939 280.015L17.9215 282.152C17.9918 282.192 18.0751 282.204 18.1537 282.184Z" fill="#6246EA"/>
<path d="M23.4743 283.984C23.5045 283.977 23.5334 283.965 23.5599 283.948C23.595 283.927 23.6255 283.899 23.6498 283.866C23.6741 283.833 23.6915 283.795 23.7013 283.755C23.711 283.715 23.7127 283.674 23.7065 283.633C23.7002 283.593 23.6859 283.554 23.6646 283.519L18.5683 275.14C18.525 275.07 18.4556 275.019 18.3752 275C18.2948 274.981 18.2101 274.994 18.1395 275.037C18.0689 275.08 18.0182 275.149 17.9985 275.229C17.9788 275.31 17.9917 275.395 18.0344 275.465L23.1306 283.844C23.1654 283.901 23.2176 283.945 23.2794 283.971C23.3413 283.996 23.4095 284.001 23.4743 283.984Z" fill="#6246EA"/>
<path d="M490.629 341.838C490.248 342.031 489.86 342.225 489.479 342.413C479.606 347.349 471.707 350.155 460.903 353.229C459.991 343.044 459.11 325.141 458.253 314.043C458.028 311.162 457.804 308.744 457.585 307.038C457.53 306.131 457.344 305.236 457.035 304.382L457.072 307.038L457.166 314.043L457.71 354.104C444.27 357.66 430.464 359.65 416.567 360.034C415.842 360.053 415.13 360.066 414.443 360.078C414.199 360.084 413.962 360.091 413.724 360.091C412.943 360.097 412.168 360.103 411.387 360.103C396.742 360.114 382.15 358.345 367.932 354.835C368.239 344.756 368.545 327.053 368.838 314.043C368.901 311.5 368.957 309.131 369.02 307.038C369.138 302.564 369.263 299.339 369.382 298.258C369.277 298.45 369.195 298.653 369.138 298.864C368.56 301.559 368.165 304.29 367.957 307.038C367.739 309.131 367.52 311.5 367.301 314.043C366.139 327.559 364.927 345.937 363.677 353.729C356.238 351.698 348.939 349.187 341.825 346.212C338.075 344.65 334.393 342.965 330.777 341.157C331.464 336.657 332.183 331.615 332.92 326.384C333.495 322.329 334.088 318.161 334.695 314.043C335.632 307.681 367.476 238.988 374.981 236.582L375.169 236.532L375.3 236.588L388.079 232.664L389.947 232.089L391.203 231.702L395.627 228.333L398.033 226.502L400.289 224.784L404.701 221.428L432.014 223.109L437.332 235.913L449.243 240.269L449.449 240.175L449.63 240.1L449.817 240.15C457.32 242.555 463.775 247.452 468.114 254.029C468.701 254.91 469.414 256.072 470.22 257.478C470.907 258.672 471.657 260.034 472.47 261.54C473.626 263.683 474.888 266.102 476.225 268.72C476.519 269.295 476.819 269.882 477.119 270.476C477.675 271.575 478.239 272.698 478.812 273.844C480.143 276.5 481.518 279.274 482.893 282.092C484.086 284.536 485.292 289.56 486.48 295.952C487.461 301.264 488.435 307.525 489.379 314.043C490.616 322.491 489.298 332.608 490.416 340.382C490.485 340.875 490.56 341.357 490.629 341.838Z" fill="#3F3D56"/>
<path d="M410.522 216.832C428.066 216.832 442.289 202.61 442.289 185.065C442.289 167.521 428.066 153.298 410.522 153.298C392.977 153.298 378.755 167.521 378.755 185.065C378.755 202.61 392.977 216.832 410.522 216.832Z" fill="#FFB6B6"/>
<path opacity="0.2" d="M359.721 295.925L365.031 275.434L369.72 293.115L359.721 295.925Z" fill="black"/>
<path d="M501.015 282.574C499.115 308.744 501.083 320.267 490.598 341.844C481.057 346.514 471.12 350.324 460.903 353.229C459.841 353.529 458.776 353.821 457.71 354.104C444.27 357.66 430.464 359.65 416.567 360.034C415.843 360.053 415.13 360.066 414.443 360.078C414.199 360.084 413.962 360.091 413.724 360.091C412.943 360.097 412.168 360.103 411.387 360.103C396.742 360.114 382.15 358.345 367.933 354.835C366.508 354.485 365.089 354.117 363.677 353.729C356.238 351.698 348.939 349.187 341.825 346.212C338.075 344.65 334.393 342.965 330.777 341.157C329.958 340.744 329.14 340.332 328.333 339.907C324.19 332.621 321.835 323.76 321.785 313.112C324.653 294.765 494.678 266.751 501.015 282.574Z" fill="#2F2E41"/>
<path opacity="0.2" d="M501.01 287.055C501.107 285.435 501.215 283.762 501.342 282.019C495.005 266.197 324.98 294.21 322.112 312.557C322.12 314.239 322.192 315.872 322.313 317.465C329.259 299.357 490.785 272.732 501.01 287.055Z" fill="black"/>
<path d="M317.556 283.808L331.512 276.83L319.882 245.429L316.817 229.593C316.419 227.536 315.488 225.619 314.117 224.034C312.746 222.449 310.983 221.252 309.004 220.562C307.025 219.872 304.9 219.714 302.841 220.102C300.782 220.491 298.861 221.413 297.269 222.777C294.912 224.798 293.431 227.656 293.141 230.748C292.85 233.839 293.772 236.923 295.712 239.348L307.089 253.57L317.556 283.808Z" fill="#FFB6B6"/>
<path d="M331.512 271.015L312.904 280.319L327.026 324.566C328.04 327.744 329.858 330.605 332.303 332.873C334.749 335.142 337.738 336.739 340.983 337.512C344.984 338.464 349.184 338.118 352.975 336.523C356.765 334.928 359.949 332.167 362.065 328.64L399.511 264.456C402.165 260.033 402.984 254.748 401.794 249.729C400.603 244.711 397.498 240.357 393.14 237.597C390.797 236.113 388.167 235.139 385.422 234.738C382.677 234.337 379.878 234.519 377.208 235.272C374.538 236.024 372.057 237.33 369.925 239.105C367.793 240.88 366.059 243.084 364.835 245.574L341.979 294.275L331.512 271.015Z" fill="#3F3D56"/>
<path d="M130.918 214.64C150.223 214.64 165.872 198.991 165.872 179.687C165.872 160.383 150.223 144.734 130.918 144.734C111.614 144.734 95.9655 160.383 95.9655 179.687C95.9655 198.991 111.614 214.64 130.918 214.64Z" fill="#A0616A"/>
<path d="M96.3851 155.6C99.227 151.77 103.312 149.047 106.436 145.443C108.151 143.466 109.574 141.225 111.501 139.455C115.082 136.166 120.09 134.819 124.949 134.651C130.274 134.514 135.557 135.633 140.37 137.917C145.182 140.201 149.389 143.586 152.651 147.798C155.191 146.308 157.731 144.819 160.271 143.33C161.274 145.971 162.277 148.612 163.281 151.253C164.104 150.538 165.155 150.137 166.246 150.121C167.337 150.106 168.398 150.477 169.241 151.17C170.085 151.862 170.655 152.831 170.853 153.904C171.05 154.977 170.861 156.085 170.319 157.032C170.924 155.165 173.693 154.768 175.22 156.002C176.747 157.236 177.156 159.432 176.907 161.379C176.594 163.515 175.65 165.509 174.195 167.104C172.74 168.7 170.841 169.823 168.743 170.331C165.428 171.069 161.571 170.294 158.918 172.413C156.791 174.113 156.149 177.207 153.979 178.85C151.304 180.875 147.524 179.939 144.199 180.386C138.383 181.169 133.777 187.118 134.476 192.945C133.95 191.107 133.397 189.215 132.203 187.721C131.008 186.228 128.996 185.217 127.164 185.767C124.136 186.674 123.641 190.802 124.375 193.877C126.321 202.031 133.698 215.213 133.698 215.213C124.12 218.991 112.709 215.418 105.318 208.249C97.9284 201.08 94.0795 190.928 92.4029 180.769C90.9812 172.154 91.1826 162.612 96.3851 155.6Z" fill="#2F2E41"/>
<path d="M450.332 202.577C456.982 187.331 453.214 173.301 445.108 165.859V165.852C441.921 158.71 437.684 153.199 432.835 151.905C430.492 150.399 428.217 148.631 425.692 147.731C424.517 147.291 423.264 147.093 422.009 147.15C420.755 147.207 419.525 147.517 418.394 148.062L417.107 147.718C416.013 144.925 414.732 144.869 413.307 146.706C407.821 144.15 402.878 143.007 398.479 143.007C384.131 143.007 375.645 155.154 373.396 169.839L385.387 173.032L389.555 166.39L387.631 173.632L394.248 175.388C404.321 188.505 392.267 218.762 376.989 235.596C380.626 234.59 384.248 233.74 387.856 233.046L400.966 213.825L392.842 231.322C397.06 230.703 402.44 231.297 408.321 232.49C410.302 229.903 411.345 226.454 410.32 223.379C411.996 226.622 413.151 230.108 413.745 233.709C426.155 236.74 443.083 238.296 452.206 239.445C459.577 237.039 459.598 209.863 450.332 202.577Z" fill="#2F2E41"/>
<path d="M454.658 150.717C459.529 161.623 449.701 166.314 440.697 166.182C432.562 166.062 425.648 160.346 425.232 152.221C425.033 148.319 426.392 144.497 429.01 141.597C431.628 138.697 435.291 136.955 439.193 136.756C447.319 136.341 451.34 143.288 454.658 150.717Z" fill="#2F2E41"/>
<path d="M228.697 328.258L220.674 314.876L247.351 294.637L258.443 282.926C259.884 281.405 261.699 280.288 263.707 279.688C265.714 279.088 267.844 279.025 269.884 279.506C271.924 279.987 273.801 280.995 275.329 282.429C276.858 283.863 277.983 285.673 278.592 287.678C279.495 290.649 279.209 293.854 277.793 296.618C276.377 299.382 273.943 301.488 271.005 302.491L253.769 308.376L228.697 328.258Z" fill="#A0616A"/>
<path d="M234.496 327.817L222.005 338.227L218.637 341.033L218.243 341.358C217.374 341.789 216.499 342.214 215.618 342.633C212.981 343.889 210.311 345.082 207.607 346.213C200.493 349.189 193.194 351.7 185.755 353.731C184.343 354.118 182.924 354.487 181.5 354.837C180.631 355.049 179.756 355.262 178.881 355.462C178.331 355.593 177.775 355.718 177.219 355.837C176.544 355.987 175.869 356.137 175.194 356.274C174.488 356.424 173.782 356.568 173.076 356.705C171.176 354.897 169.663 352.722 168.63 350.311C167.597 347.901 167.064 345.305 167.065 342.683C167.065 342.514 167.065 342.339 167.071 342.164L169.077 290.717L169.964 267.915C170.101 262.759 172.249 257.86 175.949 254.266C179.649 250.672 184.608 248.668 189.767 248.681C190.367 248.681 190.96 248.712 191.548 248.769C191.973 249.318 192.366 249.887 192.748 250.462C193.785 251.999 195.185 254.43 196.834 257.48C197.515 258.736 198.234 260.098 198.99 261.541C199.446 262.41 203.383 274.695 207.214 287.243L205.526 300.347L202.477 323.967L214.987 315.756L223.798 309.97L224.842 311.713L227.56 316.25L232.809 324.998L234.496 327.817Z" fill="#3F3D56"/>
<path d="M227.647 313.113C227.641 314.175 227.616 315.219 227.56 316.25C227.43 319.094 227.1 321.926 226.572 324.724C225.71 329.422 224.171 333.97 222.005 338.227C221.717 338.796 221.411 339.358 221.098 339.908C220.292 340.333 219.474 340.746 218.655 341.158C218.518 341.227 218.38 341.296 218.243 341.358C214.762 343.089 211.217 344.707 207.607 346.213C200.493 349.189 193.194 351.7 185.755 353.731C184.343 354.118 182.924 354.487 181.499 354.837C178.719 355.524 175.911 356.147 173.076 356.705C161.537 358.972 149.804 360.111 138.045 360.105C137.264 360.105 136.489 360.098 135.708 360.092C135.47 360.092 135.233 360.086 134.989 360.08C134.302 360.067 133.589 360.055 132.864 360.036C118.968 359.652 105.162 357.662 91.722 354.106C90.6534 353.825 89.589 353.533 88.5288 353.231C78.3121 350.325 68.3746 346.515 58.8342 341.845C48.3486 320.268 50.317 308.745 48.4174 282.575C52.3166 272.833 118.286 279.713 169.077 290.717C182.862 293.704 195.522 296.997 205.526 300.347C215.862 303.802 223.354 307.314 226.291 310.614C226.978 311.297 227.449 312.166 227.647 313.113Z" fill="#2F2E41"/>
<path opacity="0.2" d="M48.4211 287.055C48.3241 285.435 48.2156 283.762 48.0891 282.019C54.4255 266.197 224.451 294.21 227.319 312.557C227.311 314.239 227.239 315.872 227.118 317.465C220.172 299.357 58.6459 272.732 48.4211 287.055Z" fill="black"/>
</g>
<defs>
<clipPath id="clip0_508_410">
<rect width="550" height="360.105" fill="white"/>
</clipPath>
</defs>
</svg>
