<svg width="550" height="414" viewBox="0 0 550 414" fill="none" xmlns="http://www.w3.org/2000/svg">
<g clip-path="url(#clip0_508_507)">
<path d="M29.2723 412.708L28.6641 411.583C36.819 407.173 46.9681 401.684 52.2691 392.677C57.4947 383.798 57.6119 371.741 52.575 361.211C48.2886 352.249 40.4146 344.22 29.8045 337.991C27.7117 336.763 25.5148 335.598 23.3901 334.472C18.2546 331.751 12.9443 328.936 8.56555 324.943C2.53474 319.443 -2.02832 310.214 1.37269 301.994C2.4912 299.37 4.32301 297.112 6.66012 295.477C8.99723 293.842 11.746 292.894 14.5943 292.743L14.6665 294.02C12.0571 294.158 9.53869 295.025 7.39715 296.523C5.25562 298.02 3.57667 300.088 2.55084 302.491C-0.609585 310.13 3.7265 318.799 9.42729 323.998C13.6863 327.882 18.9239 330.658 23.989 333.342C26.1257 334.475 28.3352 335.646 30.4521 336.889C41.2829 343.247 49.3319 351.466 53.7287 360.659C58.9466 371.568 58.8097 384.085 53.3712 393.326C47.8896 402.64 37.5669 408.223 29.2723 412.708Z" fill="#F1F1F1"/>
<path d="M22.6995 299.483C28.8795 299.483 33.8894 297.05 33.8894 294.048C33.8894 291.046 28.8795 288.613 22.6995 288.613C16.5195 288.613 11.5096 291.046 11.5096 294.048C11.5096 297.05 16.5195 299.483 22.6995 299.483Z" fill="#F1F1F1"/>
<path d="M31.6514 335.291C37.8315 335.291 42.8413 332.857 42.8413 329.856C42.8413 326.854 37.8315 324.421 31.6514 324.421C25.4714 324.421 20.4615 326.854 20.4615 329.856C20.4615 332.857 25.4714 335.291 31.6514 335.291Z" fill="#F1F1F1"/>
<path d="M11.1899 341.045C17.3699 341.045 22.3798 338.612 22.3798 335.61C22.3798 332.609 17.3699 330.175 11.1899 330.175C5.00989 330.175 0 332.609 0 335.61C0 338.612 5.00989 341.045 11.1899 341.045Z" fill="#F1F1F1"/>
<path d="M43.1611 371.098C49.3411 371.098 54.351 368.665 54.351 365.663C54.351 362.662 49.3411 360.228 43.1611 360.228C36.9811 360.228 31.9712 362.662 31.9712 365.663C31.9712 368.665 36.9811 371.098 43.1611 371.098Z" fill="#F1F1F1"/>
<path d="M65.5408 371.098C71.7209 371.098 76.7307 368.665 76.7307 365.663C76.7307 362.662 71.7209 360.228 65.5408 360.228C59.3608 360.228 54.351 362.662 54.351 365.663C54.351 368.665 59.3608 371.098 65.5408 371.098Z" fill="#F1F1F1"/>
<path d="M140.974 280.003H167.385C169.187 269.583 169.187 258.932 167.385 248.513H140.974C143.949 258.799 143.949 269.717 140.974 280.003Z" fill="#6246EA"/>
<path d="M59.4714 405.012H66.7237L70.174 377.039L59.4701 377.039L59.4714 405.012Z" fill="#FFB7B7"/>
<path d="M57.6216 402.644L71.904 402.644C74.3179 402.644 76.6335 403.603 78.3404 405.31C80.0473 407.017 81.0063 409.332 81.0064 411.746V412.041L57.622 412.042L57.6216 402.644Z" fill="#2F2E41"/>
<path d="M146.602 404.774L153.644 403.041L150.311 375.053L139.917 377.612L146.602 404.774Z" fill="#FFB7B7"/>
<path d="M144.24 402.917L158.109 399.503C160.453 398.927 162.93 399.305 164.996 400.554C167.061 401.804 168.545 403.823 169.122 406.167L169.193 406.454L146.486 412.042L144.24 402.917Z" fill="#2F2E41"/>
<path d="M55.0116 398.342L56.5181 390.634C56.5181 390.634 59.2913 360.872 79.1935 331.17L85.6716 298.903C85.6716 298.903 83.7477 274.48 102.317 261.26L108.042 257.316L128.113 258.466L132.749 283.846L142.089 343.897C142.089 343.897 144.5 344.123 145.404 351.067C147.241 353.983 148.328 357.309 148.567 360.747C148.567 360.747 153.347 373.934 154.628 383.643L154.477 393.144L144.384 398.521L123.346 339.025L108.298 305.762C108.298 305.762 101.056 329.198 89.9632 349.274C89.9632 349.274 74.7695 382.16 71.7341 388.842L68.4198 399.776L55.0116 398.342Z" fill="#2F2E41"/>
<path d="M122.121 206.247C130.045 206.247 136.468 199.824 136.468 191.901C136.468 183.977 130.045 177.554 122.121 177.554C114.198 177.554 107.775 183.977 107.775 191.901C107.775 199.824 114.198 206.247 122.121 206.247Z" fill="#FFB7B7"/>
<path d="M122.121 206.247C130.045 206.247 136.468 199.824 136.468 191.901C136.468 183.977 130.045 177.554 122.121 177.554C114.198 177.554 107.775 183.977 107.775 191.901C107.775 199.824 114.198 206.247 122.121 206.247Z" fill="#FFB8B8"/>
<path d="M102.359 261.413L107.095 249.583C103.749 238.745 103.954 227.121 107.68 216.408L108.586 215.661C116.48 209.161 123.408 210.344 129.837 218.296C130.873 219.589 132.083 220.731 133.435 221.688C136.27 223.678 140.769 234.486 134.829 240.822L130.077 268.54C130.578 283.844 119.473 278.082 102.359 261.413Z" fill="#3F3D56"/>
<path d="M144.412 277.753C144.316 276.991 144.054 276.26 143.645 275.61C143.235 274.961 142.689 274.409 142.043 273.993C141.397 273.578 140.668 273.309 139.907 273.206C139.146 273.103 138.372 273.167 137.639 273.396L129.95 264.179L123.209 267.485L134.25 280.349C134.715 281.555 135.607 282.548 136.756 283.141C137.905 283.734 139.231 283.885 140.484 283.565C141.736 283.245 142.828 282.476 143.552 281.405C144.276 280.334 144.582 279.035 144.412 277.753Z" fill="#FFB7B7"/>
<path d="M128.128 277.632L108.876 248.777L114.443 227.854C115.361 225.966 116.991 224.52 118.974 223.833C120.958 223.146 123.134 223.275 125.022 224.191C126.911 225.108 128.359 226.737 129.047 228.72C129.736 230.703 129.608 232.879 128.693 234.768L122.028 248.536L137.663 270.958L128.128 277.632Z" fill="#CCCCCC"/>
<path d="M96.5489 188.758C104.15 188.758 110.312 182.596 110.312 174.995C110.312 167.393 104.15 161.231 96.5489 161.231C88.9474 161.231 82.7853 167.393 82.7853 174.995C82.7853 182.596 88.9474 188.758 96.5489 188.758Z" fill="#2F2E41"/>
<path d="M84.677 186.392C86.4585 187.679 88.5223 188.522 90.696 188.848C92.8697 189.174 95.0899 188.976 97.1709 188.268C99.2519 187.56 101.133 186.365 102.657 184.781C104.182 183.197 105.304 181.271 105.932 179.165C105.694 181.053 105.068 182.871 104.093 184.504C103.117 186.138 101.813 187.552 100.264 188.656C98.7146 189.76 96.953 190.532 95.0906 190.921C93.2281 191.31 91.3052 191.309 89.4431 190.917C87.5811 190.526 85.8205 189.753 84.2724 188.647C82.7243 187.54 81.4224 186.125 80.4488 184.49C79.4752 182.856 78.8512 181.037 78.616 179.149C78.3809 177.261 78.5397 175.344 79.0826 173.521C78.7743 175.971 79.131 178.458 80.1153 180.723C81.0996 182.988 82.6753 184.946 84.677 186.392Z" fill="#2F2E41"/>
<path d="M138.994 186.407C136.591 182.106 135.672 180.309 132.574 177.693C129.834 175.379 126.464 174.7 123.746 176.892C120.531 175.503 116.953 175.188 113.544 175.994C110.136 176.8 107.078 178.684 104.825 181.366C102.573 184.048 101.245 187.386 101.04 190.883C100.836 194.379 101.764 197.849 103.688 200.776C105.612 203.703 108.429 205.931 111.72 207.13C115.012 208.328 118.602 208.433 121.957 207.429C125.313 206.425 128.255 204.365 130.347 201.555C132.439 198.746 133.568 195.336 133.568 191.833C133.566 191.218 133.528 190.604 133.457 189.993C135.82 189.661 136.632 186.739 138.994 186.407Z" fill="#2F2E41"/>
<path d="M208.024 413.067H13.0003C12.8307 413.067 12.668 413 12.5481 412.88C12.4282 412.76 12.3608 412.597 12.3608 412.428C12.3608 412.258 12.4282 412.095 12.5481 411.975C12.668 411.856 12.8307 411.788 13.0003 411.788H208.024C208.194 411.788 208.356 411.856 208.476 411.975C208.596 412.095 208.664 412.258 208.664 412.428C208.664 412.597 208.596 412.76 208.476 412.88C208.356 413 208.194 413.067 208.024 413.067Z" fill="#CBCBCB"/>
<path d="M505.424 51.5657H504.828V35.2393C504.828 33.9984 504.584 32.7697 504.109 31.6233C503.634 30.4768 502.938 29.4352 502.061 28.5577C501.183 27.6803 500.141 26.9843 498.995 26.5094C497.849 26.0345 496.62 25.7901 495.379 25.7901H460.789C459.548 25.7901 458.32 26.0345 457.173 26.5094C456.027 26.9842 454.985 27.6802 454.108 28.5577C453.23 29.4351 452.534 30.4768 452.059 31.6232C451.584 32.7697 451.34 33.9984 451.34 35.2393V124.807C451.34 127.313 452.336 129.716 454.108 131.488C455.88 133.261 458.283 134.256 460.789 134.256H495.379C497.885 134.256 500.288 133.261 502.06 131.489C503.833 129.716 504.828 127.313 504.828 124.807V63.187H505.424V51.5657Z" fill="#E5E5E5"/>
<path d="M495.366 28.2485H490.851C491.059 28.7575 491.138 29.3099 491.082 29.8568C491.026 30.4037 490.836 30.9284 490.529 31.3847C490.223 31.841 489.808 32.2149 489.323 32.4734C488.838 32.7319 488.297 32.8672 487.747 32.8672H467.931C467.381 32.8672 466.84 32.7319 466.355 32.4734C465.869 32.2149 465.455 31.841 465.149 31.3847C464.842 30.9284 464.652 30.4037 464.596 29.8568C464.54 29.3099 464.619 28.7575 464.827 28.2485H460.61C458.738 28.2485 456.943 28.9919 455.62 30.3153C454.297 31.6387 453.553 33.4335 453.553 35.3051V124.741C453.553 126.613 454.297 128.408 455.62 129.731C456.943 131.054 458.738 131.798 460.61 131.798H495.366C496.293 131.798 497.21 131.615 498.066 131.261C498.923 130.906 499.7 130.386 500.356 129.731C501.011 129.076 501.531 128.298 501.885 127.442C502.24 126.585 502.423 125.668 502.423 124.741V35.3051C502.423 34.3784 502.24 33.4608 501.885 32.6046C501.531 31.7485 501.011 30.9706 500.356 30.3153C499.7 29.6601 498.923 29.1403 498.066 28.7856C497.21 28.431 496.293 28.2485 495.366 28.2485Z" fill="white"/>
<path d="M496.442 61.0395H474.893V62.7468H496.442V61.0395Z" fill="#E5E5E5"/>
<path d="M496.442 66.4461H474.893V68.1535H496.442V66.4461Z" fill="#E5E5E5"/>
<path d="M496.442 71.8527H474.893V73.5601H496.442V71.8527Z" fill="#E5E5E5"/>
<path d="M470.732 62.0947H460.322V72.5049H470.732V62.0947Z" fill="#E5E5E5"/>
<path d="M467.44 99.0068C469.942 99.0068 471.971 96.9785 471.971 94.4765C471.971 91.9745 469.942 89.9463 467.44 89.9463C464.938 89.9463 462.91 91.9745 462.91 94.4765C462.91 96.9785 464.938 99.0068 467.44 99.0068Z" fill="#6246EA"/>
<path d="M479.521 98.1784C481.565 98.1784 483.223 96.521 483.223 94.4765C483.223 92.432 481.565 90.7747 479.521 90.7747C477.476 90.7747 475.819 92.432 475.819 94.4765C475.819 96.521 477.476 98.1784 479.521 98.1784Z" fill="#6246EA"/>
<path d="M491.602 96.7287C492.846 96.7287 493.854 95.7204 493.854 94.4765C493.854 93.2327 492.846 92.2244 491.602 92.2244C490.358 92.2244 489.35 93.2327 489.35 94.4765C489.35 95.7204 490.358 96.7287 491.602 96.7287Z" fill="#6246EA"/>
<path d="M347.545 129.35H268.141C266.259 129.348 264.455 128.6 263.124 127.269C261.793 125.938 261.044 124.134 261.042 122.252V7.09862C261.044 5.2166 261.793 3.41227 263.124 2.08148C264.455 0.75069 266.259 0.00212396 268.141 0H347.545C349.427 0.00212396 351.231 0.75069 352.562 2.08148C353.892 3.41227 354.641 5.2166 354.643 7.09862V122.252C354.641 124.134 353.892 125.938 352.562 127.269C351.231 128.6 349.427 129.348 347.545 129.35Z" fill="#E5E5E5"/>
<path d="M347.684 124.821H268.001C267.421 124.821 266.865 124.59 266.454 124.18C266.044 123.769 265.813 123.213 265.813 122.633V6.71729C265.813 6.13714 266.044 5.58094 266.454 5.17071C266.865 4.76048 267.421 4.52971 268.001 4.52905H347.684C348.264 4.52971 348.821 4.76048 349.231 5.17071C349.641 5.58094 349.872 6.13714 349.872 6.71729V122.633C349.872 123.213 349.641 123.769 349.231 124.18C348.821 124.59 348.264 124.821 347.684 124.821Z" fill="white"/>
<path d="M307.541 2.77782C307.874 2.77782 308.145 2.50746 308.145 2.17395C308.145 1.84043 307.874 1.57007 307.541 1.57007C307.207 1.57007 306.937 1.84043 306.937 2.17395C306.937 2.50746 307.207 2.77782 307.541 2.77782Z" fill="white"/>
<path d="M340.868 40.0787H296.549V42.6252H340.868V40.0787Z" fill="#E5E5E5"/>
<path d="M340.868 48.1425H296.549V50.689H340.868V48.1425Z" fill="#E5E5E5"/>
<path d="M340.868 56.2062H296.549V58.7527H340.868V56.2062Z" fill="#E5E5E5"/>
<path d="M290.344 41.6525H274.817V57.179H290.344V41.6525Z" fill="#E5E5E5"/>
<path d="M292.942 89.2717C296.349 89.2717 299.112 86.5096 299.112 83.1024C299.112 79.6952 296.349 76.9331 292.942 76.9331C289.535 76.9331 286.773 79.6952 286.773 83.1024C286.773 86.5096 289.535 89.2717 292.942 89.2717Z" fill="#6246EA"/>
<path d="M309.394 88.1435C312.178 88.1435 314.435 85.8865 314.435 83.1023C314.435 80.3182 312.178 78.0612 309.394 78.0612C306.61 78.0612 304.353 80.3182 304.353 83.1023C304.353 85.8865 306.61 88.1435 309.394 88.1435Z" fill="#6246EA"/>
<path d="M325.845 86.1694C327.539 86.1694 328.912 84.7962 328.912 83.1024C328.912 81.4085 327.539 80.0353 325.845 80.0353C324.151 80.0353 322.778 81.4085 322.778 83.1024C322.778 84.7962 324.151 86.1694 325.845 86.1694Z" fill="#6246EA"/>
<path d="M498.528 140.003H264.25C263.404 140.003 262.565 140.17 261.783 140.494C261 140.818 260.289 141.293 259.691 141.892C259.092 142.491 258.617 143.202 258.293 143.984C257.969 144.766 257.802 145.605 257.802 146.452V276.987C257.802 278.697 258.481 280.337 259.691 281.546C260.9 282.756 262.54 283.435 264.25 283.435H498.528C500.238 283.435 501.878 282.756 503.087 281.546C504.296 280.337 504.976 278.697 504.976 276.987V146.452C504.976 144.742 504.296 143.101 503.087 141.892C501.878 140.683 500.238 140.003 498.528 140.003Z" fill="#3F3D56"/>
<path d="M496.331 151.399H266.447V281.077H496.331V151.399Z" fill="white"/>
<path d="M381.192 147.863C382.495 147.863 383.55 146.807 383.55 145.505C383.55 144.203 382.495 143.147 381.192 143.147C379.89 143.147 378.835 144.203 378.835 145.505C378.835 146.807 379.89 147.863 381.192 147.863Z" fill="white"/>
<path d="M511.43 278.719H488.995V277.103C488.995 277.061 488.987 277.019 488.971 276.98C488.955 276.941 488.931 276.906 488.901 276.876C488.872 276.847 488.836 276.823 488.798 276.807C488.759 276.791 488.717 276.783 488.675 276.783H480.983C480.941 276.783 480.899 276.791 480.86 276.807C480.821 276.823 480.786 276.847 480.756 276.876C480.726 276.906 480.703 276.941 480.687 276.98C480.671 277.019 480.662 277.061 480.662 277.103V278.719H475.855V277.103C475.855 277.061 475.847 277.019 475.83 276.98C475.814 276.941 475.791 276.906 475.761 276.876C475.731 276.847 475.696 276.823 475.657 276.807C475.618 276.791 475.576 276.783 475.534 276.783H467.842C467.8 276.783 467.758 276.791 467.72 276.807C467.681 276.823 467.645 276.847 467.616 276.876C467.586 276.906 467.562 276.941 467.546 276.98C467.53 277.019 467.522 277.061 467.522 277.103V278.719H462.714V277.103C462.714 277.061 462.706 277.019 462.69 276.98C462.674 276.941 462.65 276.906 462.62 276.876C462.591 276.847 462.555 276.823 462.516 276.807C462.477 276.791 462.436 276.783 462.394 276.783H454.702C454.66 276.783 454.618 276.791 454.579 276.807C454.54 276.823 454.505 276.847 454.475 276.876C454.445 276.906 454.422 276.941 454.406 276.98C454.389 277.019 454.381 277.061 454.381 277.103V278.719H449.574V277.103C449.574 277.061 449.565 277.019 449.549 276.98C449.533 276.941 449.51 276.906 449.48 276.876C449.45 276.847 449.415 276.823 449.376 276.807C449.337 276.791 449.295 276.783 449.253 276.783H441.561C441.519 276.783 441.477 276.791 441.438 276.807C441.4 276.823 441.364 276.847 441.334 276.876C441.305 276.906 441.281 276.941 441.265 276.98C441.249 277.019 441.241 277.061 441.241 277.103V278.719H436.433V277.103C436.433 277.061 436.425 277.019 436.409 276.98C436.393 276.941 436.369 276.906 436.339 276.876C436.309 276.847 436.274 276.823 436.235 276.807C436.196 276.791 436.155 276.782 436.113 276.782H428.421C428.378 276.782 428.337 276.791 428.298 276.807C428.259 276.823 428.224 276.847 428.194 276.876C428.164 276.906 428.141 276.941 428.124 276.98C428.108 277.019 428.1 277.061 428.1 277.103V278.719H423.293V277.103C423.293 277.061 423.284 277.019 423.268 276.98C423.252 276.941 423.228 276.906 423.199 276.876C423.169 276.847 423.134 276.823 423.095 276.807C423.056 276.791 423.014 276.782 422.972 276.782H415.28C415.238 276.782 415.196 276.791 415.157 276.807C415.118 276.823 415.083 276.847 415.053 276.876C415.024 276.906 415 276.941 414.984 276.98C414.968 277.019 414.959 277.061 414.959 277.103V278.719H410.152V277.103C410.152 277.061 410.144 277.019 410.128 276.98C410.111 276.941 410.088 276.906 410.058 276.876C410.028 276.847 409.993 276.823 409.954 276.807C409.915 276.791 409.874 276.782 409.831 276.782H349.577C349.535 276.782 349.493 276.791 349.454 276.807C349.416 276.823 349.38 276.847 349.35 276.876C349.321 276.906 349.297 276.941 349.281 276.98C349.265 277.019 349.257 277.061 349.257 277.103V278.719H344.449V277.103C344.449 277.061 344.441 277.019 344.425 276.98C344.409 276.941 344.385 276.906 344.355 276.876C344.325 276.847 344.29 276.823 344.251 276.807C344.212 276.791 344.171 276.782 344.129 276.782H336.437C336.394 276.782 336.353 276.791 336.314 276.807C336.275 276.823 336.24 276.847 336.21 276.876C336.18 276.906 336.157 276.941 336.14 276.98C336.124 277.019 336.116 277.061 336.116 277.103V278.719H331.309V277.103C331.309 277.061 331.3 277.019 331.284 276.98C331.268 276.941 331.244 276.906 331.215 276.876C331.185 276.847 331.15 276.823 331.111 276.807C331.072 276.791 331.03 276.782 330.988 276.782H323.296C323.254 276.782 323.212 276.791 323.173 276.807C323.134 276.823 323.099 276.847 323.069 276.876C323.04 276.906 323.016 276.941 323 276.98C322.984 277.019 322.975 277.061 322.975 277.103V278.719H318.168V277.103C318.168 277.061 318.16 277.019 318.144 276.98C318.127 276.941 318.104 276.906 318.074 276.876C318.044 276.847 318.009 276.823 317.97 276.807C317.931 276.791 317.89 276.782 317.847 276.782H310.155C310.113 276.782 310.072 276.791 310.033 276.807C309.994 276.823 309.959 276.847 309.929 276.876C309.899 276.906 309.875 276.941 309.859 276.98C309.843 277.019 309.835 277.061 309.835 277.103V278.719H305.027V277.103C305.027 277.061 305.019 277.019 305.003 276.98C304.987 276.941 304.963 276.906 304.933 276.876C304.904 276.847 304.868 276.823 304.83 276.807C304.791 276.791 304.749 276.782 304.707 276.782H297.015C296.973 276.782 296.931 276.791 296.892 276.807C296.853 276.823 296.818 276.847 296.788 276.876C296.758 276.906 296.735 276.941 296.719 276.98C296.703 277.019 296.694 277.061 296.694 277.103V278.719H291.887V277.103C291.887 277.061 291.878 277.019 291.862 276.98C291.846 276.941 291.823 276.906 291.793 276.876C291.763 276.847 291.728 276.823 291.689 276.807C291.65 276.791 291.608 276.782 291.566 276.782H283.874C283.789 276.782 283.708 276.816 283.648 276.876C283.588 276.936 283.554 277.018 283.554 277.103V278.719H278.746V277.103C278.746 277.061 278.738 277.019 278.722 276.98C278.706 276.941 278.682 276.906 278.652 276.876C278.623 276.847 278.587 276.823 278.548 276.807C278.509 276.791 278.468 276.782 278.426 276.782H270.734C270.649 276.782 270.567 276.816 270.507 276.876C270.447 276.936 270.413 277.018 270.413 277.103V278.719H255.67C254.66 278.719 253.66 278.918 252.726 279.305C251.793 279.692 250.945 280.258 250.231 280.972C249.517 281.687 248.95 282.535 248.564 283.468C248.177 284.401 247.978 285.401 247.978 286.412V289.89C247.978 291.93 248.788 293.886 250.231 295.329C251.674 296.771 253.63 297.582 255.67 297.582H511.43C513.471 297.582 515.427 296.771 516.87 295.329C518.312 293.886 519.123 291.93 519.123 289.89V286.412C519.123 285.401 518.924 284.401 518.537 283.468C518.15 282.535 517.584 281.687 516.87 280.972C516.155 280.258 515.307 279.692 514.374 279.305C513.441 278.918 512.441 278.719 511.43 278.719Z" fill="#3F3D56"/>
<path d="M432.632 163.747H358.293V166.509H432.632V163.747Z" fill="#CBCBCB"/>
<path d="M432.632 172.494H358.293V175.256H432.632V172.494Z" fill="#CBCBCB"/>
<path d="M432.632 181.241H358.293V184.003H432.632V181.241Z" fill="#CBCBCB"/>
<path d="M351.562 165.454H334.719V182.296H351.562V165.454Z" fill="#CBCBCB"/>
<path d="M381.21 256.919C397.488 256.919 410.684 243.723 410.684 227.444C410.684 211.166 397.488 197.97 381.21 197.97C364.931 197.97 351.735 211.166 351.735 227.444C351.735 243.723 364.931 256.919 381.21 256.919Z" fill="#6246EA"/>
<path d="M376.424 231.842H370.244L381.181 209.616L392.175 231.821H385.99V241.062H376.424V231.842Z" fill="white"/>
<path d="M225.622 120.861C229.815 115.951 235.576 112.64 241.93 111.491L239.107 109.119L242.127 108.857L245.99 112.105L242.743 115.969L239.723 116.231L241.9 113.643C235.494 114.915 229.802 118.553 225.958 123.833C222.114 129.112 220.4 135.646 221.156 142.133C221.912 148.62 225.084 154.584 230.039 158.837C234.995 163.091 241.37 165.322 247.897 165.087L247.972 167.191C242.521 167.387 237.13 165.991 232.458 163.174C227.786 160.356 224.036 156.239 221.666 151.326C219.295 146.412 218.407 140.915 219.11 135.505C219.812 130.095 222.075 125.007 225.622 120.861Z" fill="#E5E5E5"/>
<path d="M543.491 140.131C543.223 147.576 540.009 154.609 534.556 159.683C529.103 164.758 521.857 167.458 514.413 167.191L514.488 165.087C521.015 165.322 527.39 163.091 532.346 158.837C537.301 154.584 540.473 148.62 541.229 142.133C541.985 135.646 540.271 129.112 536.427 123.833C532.583 118.553 526.891 114.915 520.485 113.643L522.662 116.231L519.642 115.969L516.395 112.105L520.258 108.857L523.278 109.119L520.455 111.491C527.095 112.699 533.079 116.259 537.309 121.519C541.539 126.779 543.734 133.386 543.491 140.131Z" fill="#E5E5E5"/>
<path d="M549.361 297.971H213.024C212.855 297.971 212.692 297.904 212.572 297.784C212.452 297.664 212.385 297.501 212.385 297.332C212.385 297.162 212.452 296.999 212.572 296.879C212.692 296.76 212.855 296.692 213.024 296.692H549.361C549.53 296.692 549.693 296.76 549.813 296.879C549.933 296.999 550 297.162 550 297.332C550 297.501 549.933 297.664 549.813 297.784C549.693 297.904 549.53 297.971 549.361 297.971Z" fill="#CBCBCB"/>
</g>
<defs>
<clipPath id="clip0_508_507">
<rect width="550" height="413.067" fill="white"/>
</clipPath>
</defs>
</svg>
